<?xml version="1.0" encoding="UTF-8" standalone="no"?>
<!-- Generator: Adobe Illustrator 17.0.0, SVG Export Plug-In . SVG Version: 6.00 Build 0)  -->

<svg
   version="1.1"
   id="Layer_1"
   x="0px"
   y="0px"
   width="299px"
   height="78px"
   viewBox="0 0 299 78"
   enable-background="new 0 0 299 78"
   xml:space="preserve"
   sodipodi:docname="lovLogo2.svg"
   inkscape:version="1.3 (0e150ed6c4, 2023-07-21)"
   xmlns:inkscape="http://www.inkscape.org/namespaces/inkscape"
   xmlns:sodipodi="http://sodipodi.sourceforge.net/DTD/sodipodi-0.dtd"
   xmlns="http://www.w3.org/2000/svg"
   xmlns:svg="http://www.w3.org/2000/svg"><defs
   id="defs1" /><sodipodi:namedview
   id="namedview1"
   pagecolor="#ffffff"
   bordercolor="#000000"
   borderopacity="0.25"
   inkscape:showpageshadow="2"
   inkscape:pageopacity="0.0"
   inkscape:pagecheckerboard="0"
   inkscape:deskcolor="#d1d1d1"
   inkscape:zoom="1.9179385"
   inkscape:cx="129.5662"
   inkscape:cy="115.22789"
   inkscape:window-width="1440"
   inkscape:window-height="890"
   inkscape:window-x="-6"
   inkscape:window-y="-6"
   inkscape:window-maximized="1"
   inkscape:current-layer="g9" />&#10;&#10;<g
   id="g9"
   transform="translate(13.556219,-2.0855726)"><path
     style="fill:none"
     d="M -27.08741,70.165638 V -35.966663 H 142.72428 312.53597 V 70.165638 176.29794 H 142.72428 -27.08741 Z M 97.288527,100.58324 c 1.754947,-0.22005 1.924974,-0.34337 2.204273,-1.598764 0.127599,-0.57353 0.211695,-1.290614 0.186881,-1.593518 -0.03925,-0.479065 -0.09058,-0.550735 -0.394461,-0.550735 -0.289874,0 -0.39403,0.120449 -0.611839,0.707549 -0.332802,0.89706 -0.55336,1.136339 -1.315844,1.427534 -0.847346,0.323604 -2.798291,0.216036 -3.918917,-0.216076 -1.140809,-0.439895 -2.370298,-1.606789 -2.964306,-2.81339 -0.444473,-0.902854 -0.462412,-1.005284 -0.462412,-2.640385 0,-1.484117 0.04255,-1.795199 0.333617,-2.438891 0.18482,-0.408732 0.635745,-1.020403 1.011018,-1.371427 0.928894,-0.868871 1.835131,-1.123676 3.732673,-1.049509 2.325207,0.09088 3.484032,0.804763 3.484032,2.146294 0,0.465351 0.325794,0.721466 0.677982,0.53298 0.232365,-0.124358 0.285911,-0.372361 0.371111,-1.718825 0.0663,-1.047852 0.0492,-1.634191 -0.05122,-1.755178 -0.08293,-0.09992 -0.484657,-0.220534 -0.892727,-0.268023 -0.40807,-0.04749 -1.155861,-0.15059 -1.661759,-0.229115 -2.190161,-0.339958 -4.450197,-0.07681 -6.03846,0.703094 -1.987591,0.975989 -3.442692,3.431587 -3.442692,5.809815 0,4.87389 3.912974,7.64886 9.753045,6.91657 z m 39.406793,-0.28265 c 1.0077,-0.377024 1.81709,-1.002993 2.3296,-1.801666 0.76853,-1.197649 0.89032,-1.967088 0.99054,-6.257767 l 0.0909,-3.891518 0.35378,-0.04894 c 0.45433,-0.06285 0.70754,-0.27401 0.70754,-0.590044 0,-0.375508 -0.26854,-0.422342 -2.42168,-0.422342 -1.69702,0 -1.98647,0.03248 -2.06283,0.231499 -0.1436,0.374216 0.15906,0.685075 0.7129,0.7322 0.40117,0.03414 0.5339,0.116129 0.59738,0.369033 0.0449,0.178831 0.061,2.074209 0.0359,4.211951 l -0.0457,3.886804 -0.42669,0.8338 c -0.32638,0.637762 -0.58991,0.934721 -1.12086,1.263043 -0.61472,0.380124 -0.81808,0.429243 -1.77715,0.429243 -0.9589,0 -1.16263,-0.04919 -1.77793,-0.429243 -0.53206,-0.328642 -0.79493,-0.624661 -1.12163,-1.263049 l -0.42669,-0.833805 -0.0433,-4.151121 c -0.0346,-3.320745 -0.006,-4.162625 0.14151,-4.208634 0.10162,-0.03163 0.36389,-0.09689 0.58283,-0.145024 0.33309,-0.07322 0.39084,-0.150237 0.35378,-0.471726 l -0.0443,-0.384216 h -2.33492 -2.33491 l -0.0478,0.337771 c -0.0547,0.386592 0.17215,0.576756 0.69162,0.579875 0.68333,0.0041 0.70031,0.09968 0.70293,3.957364 0.003,4.799107 0.23258,5.881302 1.50679,7.110956 1.34532,1.298286 4.12501,1.727516 6.18824,0.955556 z m 39.67061,0.12504 c 0.79716,-0.20073 0.98872,-0.505517 1.26567,-2.013854 0.18299,-0.996546 0.19033,-1.255642 0.0407,-1.435955 -0.3396,-0.409201 -0.71793,-0.184004 -1.00988,0.601123 -0.49441,1.329608 -1.31445,1.703884 -3.43504,1.567793 -2.04818,-0.131444 -3.77821,-1.306101 -4.71509,-3.201461 -0.5094,-1.030532 -0.5285,-1.123159 -0.5285,-2.562536 0,-1.798812 0.25921,-2.671169 1.06608,-3.587817 0.30553,-0.347105 0.85929,-0.780745 1.23057,-0.963644 0.60246,-0.296784 0.87287,-0.332843 2.51468,-0.335336 1.66351,-0.0025 1.90553,0.02991 2.52798,0.338794 0.74504,0.369718 1.22066,0.990397 1.2215,1.594063 4.9e-4,0.349399 0.31496,0.826729 0.5413,0.821622 0.43347,-0.0098 0.52183,-0.316099 0.56765,-1.967908 0.0547,-1.970444 0.31963,-1.71257 -2.11715,-2.060482 -3.7693,-0.538163 -6.29543,-0.0013 -7.99899,1.700012 -1.35525,1.353449 -2.15231,3.571365 -1.95549,5.441385 0.37202,3.534666 2.54762,5.691341 6.29339,6.238611 0.96399,0.14085 3.65347,0.0364 4.49064,-0.17441 z m -64.43041,-0.199 c 0.33979,-0.339792 0.048,-0.767913 -0.52525,-0.770644 -0.87075,-0.0041 -0.87473,-0.01655 -0.92833,-2.893515 l -0.0489,-2.623198 h 3.33897 3.33898 v 2.520129 c 0,2.700781 -0.0559,2.940362 -0.70611,3.024118 -0.43591,0.05616 -0.55622,0.51999 -0.20205,0.77896 0.40021,0.29264 4.34999,0.26193 4.64806,-0.0361 0.1223,-0.12231 0.22237,-0.268769 0.22237,-0.325474 0,-0.231904 -0.36569,-0.442854 -0.77123,-0.44489 -0.88615,-0.0044 -0.85165,0.190977 -0.90318,-5.116201 -0.0259,-2.665236 -0.006,-5.119263 0.044,-5.453393 0.0778,-0.518932 0.13995,-0.607508 0.4261,-0.607508 0.32442,0 0.77974,-0.326317 0.77974,-0.55882 0,-0.362049 -0.48204,-0.437661 -2.55101,-0.400144 -1.86265,0.03378 -2.18022,0.07262 -2.31268,0.282898 -0.20837,0.330786 0.0314,0.552744 0.71734,0.664036 l 0.53785,0.08727 0.0392,2.085028 0.0392,2.085028 h -3.32926 -3.32926 l 0.002,-1.804249 c 0.002,-2.16419 0.059,-2.441043 0.49975,-2.441043 0.48425,0 0.80839,-0.374961 0.62323,-0.720934 -0.13871,-0.259199 -0.28806,-0.274282 -2.35478,-0.237815 -1.90782,0.03366 -2.22746,0.07195 -2.36022,0.282683 -0.20837,0.330759 0.0313,0.552701 0.71732,0.664163 l 0.53786,0.08739 0.0371,5.274943 c 0.0236,3.359859 -0.0149,5.372075 -0.10608,5.542484 -0.0787,0.147148 -0.31778,0.287694 -0.53118,0.312324 -0.43214,0.04988 -0.58864,0.428229 -0.31402,0.759124 0.25989,0.31316 4.40937,0.29855 4.72454,-0.0166 z m 40.95447,0.0978 c 0.10409,-0.066 0.16777,-0.27197 0.14151,-0.457741 -0.0396,-0.280022 -0.15107,-0.351558 -0.65199,-0.418413 -0.33233,-0.04435 -0.66108,-0.139872 -0.73057,-0.212265 -0.0695,-0.07239 -0.17241,-1.048897 -0.22872,-2.170011 l -0.10238,-2.038389 0.67581,0.09263 c 0.3717,0.05095 0.84563,0.09263 1.05319,0.09263 0.3165,0 0.64595,0.33666 2.04255,2.087269 1.90264,2.384928 2.2513,2.70272 3.24932,2.9616 0.97897,0.25394 2.65032,0.24449 3.00243,-0.017 0.40103,-0.297789 0.10556,-0.688557 -0.61345,-0.811301 -0.31685,-0.05409 -0.75607,-0.193185 -0.97605,-0.3091 -0.51326,-0.270453 -1.68786,-1.490356 -3.13178,-3.252554 l -1.14138,-1.392968 0.62548,-0.767918 c 1.02008,-1.252384 1.12091,-1.519772 1.12311,-2.978272 0.002,-1.21708 -0.0243,-1.333707 -0.42845,-1.909181 -0.88651,-1.262387 -1.94887,-1.53513 -5.97952,-1.53513 -2.5302,0 -2.71706,0.01789 -2.8537,0.273192 -0.19587,0.36599 0.15479,0.717376 0.7159,0.717376 0.3254,0 0.45058,0.08589 0.56543,0.387963 0.17341,0.456109 0.11376,10.159518 -0.0648,10.53542 -0.0625,0.131669 -0.277,0.259028 -0.4766,0.28302 -0.52694,0.06334 -0.75466,0.49593 -0.39977,0.759453 0.21004,0.15598 0.75953,0.20347 2.33491,0.20181 1.13312,-0.001 2.14539,-0.0562 2.24949,-0.12213 z m -1.14446,-6.479531 -0.38915,-0.06592 V 91.15545 88.531936 l 1.10772,0.05036 c 0.94032,0.04275 1.18324,0.107963 1.60745,0.431525 1.2468,0.950994 1.45728,3.220051 0.40767,4.39477 -0.37031,0.414452 -0.47538,0.450846 -1.37277,0.475511 -0.53447,0.01469 -1.14689,-0.003 -1.36092,-0.03921 z m 38.18058,6.399851 c 0.39063,-0.290063 0.10897,-0.691731 -0.56159,-0.800858 -0.28735,-0.04676 -0.58867,-0.151242 -0.6696,-0.232173 -0.0847,-0.08466 -0.18076,-1.235339 -0.22631,-2.709792 l -0.0792,-2.562644 h 3.41747 3.41748 l -0.0124,2.016514 c -0.007,1.109083 -0.0546,2.334427 -0.10613,2.722988 -0.0849,0.639638 -0.13247,0.713269 -0.50313,0.778303 -0.57373,0.100661 -0.81111,0.51803 -0.448,0.787662 0.41993,0.31183 4.49757,0.29456 4.75875,-0.0201 0.27473,-0.331024 -0.008,-0.678793 -0.63385,-0.780708 -0.28735,-0.04676 -0.59471,-0.157279 -0.68302,-0.245589 -0.19595,-0.195944 -0.32839,-9.242485 -0.14939,-10.20351 0.10317,-0.553879 0.17212,-0.642712 0.58113,-0.748697 0.52811,-0.136846 0.70666,-0.43717 0.44637,-0.750798 -0.14727,-0.177443 -0.55446,-0.207321 -2.38612,-0.175085 l -2.20856,0.03887 -0.0443,0.384216 c -0.0451,0.391555 0.0255,0.436618 0.88716,0.566208 0.38659,0.05814 0.47117,0.488712 0.48738,2.481187 l 0.0141,1.733494 h -3.39624 -3.39623 l 0.0141,-1.733494 c 0.0177,-2.16958 0.076,-2.391393 0.66926,-2.545125 0.52423,-0.135843 0.70447,-0.436809 0.44722,-0.746779 -0.14063,-0.169446 -0.59538,-0.210462 -2.33341,-0.210462 -2.25211,0 -2.59623,0.08919 -2.3925,0.620079 0.0827,0.215545 0.28067,0.297427 0.96846,0.400573 0.17895,0.02684 0.31831,0.211813 0.40153,0.53295 0.15103,0.582859 0.0651,10.012937 -0.0944,10.360349 -0.0605,0.131669 -0.27322,0.259028 -0.47281,0.28302 -0.52695,0.06334 -0.75467,0.49593 -0.39978,0.759451 0.20981,0.1558 0.76327,0.20398 2.34324,0.20398 1.57997,0 2.13343,-0.0482 2.34324,-0.20398 z m 53.4116,-18.899833 V 80.637358 H 142.65353 41.969344 v 0.707549 0.707549 H 142.65353 243.33771 Z m -98.67225,-6.261806 c 0.565,-0.615224 3.67113,-7.837136 9.87503,-22.959954 1.86055,-4.535329 2.59376,-6.10351 3.04439,-6.51133 0.36177,-0.327394 1.23721,-0.62126 1.87293,-0.628701 0.93687,-0.01097 1.41002,-0.824965 0.82158,-1.41341 -0.26046,-0.260458 -0.50735,-0.275258 -4.63207,-0.277671 -4.77419,-0.0028 -4.99849,0.03277 -4.99849,0.792554 0,0.552789 0.37852,0.892316 0.99481,0.892316 0.28953,0 0.73261,0.04124 0.98463,0.09164 0.45011,0.09002 0.45702,0.103164 0.39055,0.742926 -0.0372,0.358206 -0.46707,1.765673 -0.95522,3.127704 -1.92888,5.381898 -7.04472,18.538531 -7.20798,18.537058 -0.078,-7.03e-4 -6.77412,-17.783469 -7.76611,-20.624449 -0.33526,-0.960165 -0.459,-1.498101 -0.366,-1.591104 0.0773,-0.07728 0.54077,-0.182343 1.02997,-0.233475 1.00068,-0.104592 1.29155,-0.308675 1.29155,-0.906207 0,-0.812528 -0.0974,-0.826194 -5.91243,-0.829985 -5.06167,-0.0033 -5.28693,0.0079 -5.55426,0.275186 -0.3451,0.345104 -0.35921,0.872259 -0.031,1.15757 0.1362,0.118393 0.64525,0.254604 1.13122,0.302691 0.95115,0.09412 1.77504,0.381704 2.20455,0.76952 0.49128,0.443579 1.05003,1.771229 6.48319,15.404687 3.45195,8.662017 5.51653,13.664713 5.72563,13.873812 0.43537,0.435368 1.17787,0.439435 1.57351,0.0086 z m -35.54974,-0.461365 c 3.35709,-0.917544 5.87624,-3.462578 6.80984,-6.879818 0.30907,-1.131313 0.3469,-3.827211 0.0692,-4.934786 -0.80115,-3.195719 -3.05395,-5.418586 -6.48296,-6.396821 -1.33415,-0.380609 -4.41495,-0.451574 -5.70273,-0.131362 -1.18283,0.294119 -2.94843,1.170058 -3.852313,1.911192 -2.627373,2.154295 -3.891183,5.961695 -3.153077,9.499077 0.264632,1.268248 1.287102,3.328845 2.120608,4.273687 1.249042,1.415886 3.263132,2.490668 5.381752,2.871874 1.01507,0.182643 3.81582,0.05858 4.80965,-0.213043 z m -3.84406,-1.685709 c -3.26406,-0.791604 -5.431632,-4.039477 -5.422374,-8.12483 0.009,-3.949812 1.910814,-6.456606 5.298044,-6.983206 2.82579,-0.439316 5.56984,0.962759 6.79678,3.472818 0.7404,1.514711 0.97393,2.592232 0.97052,4.478027 -0.003,1.901175 -0.27335,3.193486 -0.92062,4.407896 -1.22081,2.290469 -3.97303,3.416066 -6.72235,2.749295 z m 69.81312,1.896722 c 1.45544,-0.182496 2.15817,-0.425638 2.48103,-0.858422 0.27117,-0.363503 0.85887,-3.082736 0.78949,-3.652906 -0.0955,-0.785021 -1.15055,-0.768271 -1.3209,0.02097 -0.13711,0.635235 -0.53887,1.390552 -0.93736,1.762251 -0.5677,0.529547 -1.38099,0.776061 -2.80286,0.84957 -2.65418,0.137218 -4.61867,-0.585658 -6.38786,-2.350541 -1.69551,-1.691388 -2.38573,-3.374372 -2.38499,-5.815404 4.5e-4,-1.476313 0.27681,-2.840096 0.7746,-3.822427 0.47796,-0.943204 1.58637,-2.056542 2.4103,-2.421006 2.15759,-0.954405 5.71496,-0.89976 7.60157,0.116767 0.87845,0.473323 1.33451,1.101871 1.44959,1.997874 0.0468,0.363992 0.13598,0.757323 0.19828,0.874068 0.15205,0.284943 0.77578,0.34639 0.9829,0.09683 0.10217,-0.123116 0.20195,-1.062219 0.25852,-2.433278 0.10387,-2.517299 0.0684,-2.61637 -0.9361,-2.616419 -0.27699,-1.3e-5 -1.01305,-0.105494 -1.63569,-0.234401 -0.81656,-0.169054 -1.88144,-0.235483 -3.82077,-0.238347 -2.53547,-0.0037 -2.76108,0.01817 -3.95916,0.384643 -1.78047,0.544606 -2.5321,0.985365 -3.76518,2.207894 -1.25924,1.248466 -2.08813,2.748885 -2.47215,4.475017 -0.34557,1.553255 -0.22646,3.96313 0.27206,5.504301 1.06593,3.295364 4.01295,5.573432 7.9433,6.140228 1.21315,0.174949 3.91553,0.18149 5.26138,0.01274 z m 32.66323,-0.21302 c 1.68364,-0.466974 2.88184,-1.174463 4.18293,-2.46986 2.00762,-1.998844 2.86808,-4.102002 2.8671,-7.007827 -9.3e-4,-2.766126 -0.70236,-4.580055 -2.43746,-6.303412 -1.22475,-1.216456 -2.44933,-1.924052 -4.19442,-2.423639 -1.48,-0.423698 -4.57779,-0.457072 -6.00779,-0.06473 -3.36385,0.922937 -5.94221,3.59449 -6.73539,6.97885 -0.3463,1.477571 -0.20955,4.020585 0.29359,5.459755 0.90598,2.591424 2.91961,4.694141 5.32637,5.561996 1.812,0.653389 4.87575,0.776241 6.70507,0.268862 z m -4.03303,-1.739126 c -3.23979,-0.846828 -5.23999,-3.923123 -5.23377,-8.049515 0.004,-2.443308 0.65871,-4.242231 2.0023,-5.499003 0.89345,-0.835721 1.92561,-1.300971 3.34522,-1.507882 2.84802,-0.415102 5.57894,1.037709 6.81362,3.624737 1.17958,2.471592 1.20167,6.114876 0.0518,8.545471 -1.16529,2.463222 -4.04357,3.653514 -6.97919,2.886192 z M 56.698221,74.546091 c 0.48052,-0.257167 0.672547,-0.741435 0.89529,-2.257807 0.247577,-1.68543 0.19476,-2.089308 -0.289106,-2.210751 -0.431459,-0.108289 -0.715318,0.12845 -0.838485,0.699299 -0.167631,0.776924 -0.613958,1.49609 -1.089916,1.756178 -0.376926,0.205972 -0.811055,0.250558 -2.439654,0.250558 -2.241261,0 -2.665092,-0.07823 -2.973431,-0.548813 -0.392488,-0.599013 -0.513405,-3.28923 -0.467241,-10.395428 l 0.04444,-6.840459 0.334074,-0.270405 c 0.184775,-0.149561 0.552569,-0.270406 0.822984,-0.270406 0.2689,0 0.612082,-0.06592 0.762626,-0.146488 0.34283,-0.183477 0.359239,-0.789571 0.02607,-0.963127 -0.136203,-0.07095 -1.794462,-0.129729 -3.68502,-0.130614 -3.708857,-0.0017 -3.97406,0.04927 -3.766843,0.724479 0.129047,0.420494 0.107675,0.409152 0.99887,0.53009 1.360382,0.184608 1.25251,-0.603739 1.25251,9.153516 0,9.84096 0.03358,9.521804 -1.029989,9.789613 -0.858827,0.216255 -1.117324,0.596768 -0.693381,1.020674 0.239241,0.23922 11.700628,0.343001 12.136199,0.109891 z m 8.268594,-0.08676 c 0.493171,-0.493171 0.149856,-0.914604 -0.856297,-1.051142 -0.445747,-0.06049 -0.881667,-0.181148 -0.968713,-0.268131 -0.111569,-0.111489 -0.170438,-2.343333 -0.199526,-7.564457 -0.04548,-8.163319 -0.07688,-7.862821 0.82165,-7.862821 0.672344,0 1.022355,-0.810022 0.503522,-1.165288 -0.08351,-0.05718 -1.39358,-0.103966 -2.911272,-0.103966 -1.517692,0 -2.827764,0.04678 -2.911271,0.103966 -0.549429,0.376216 -0.165447,1.165288 0.567058,1.165288 0.868431,0 0.853909,-0.09997 0.903472,6.219596 0.04763,6.072573 -0.09079,9.153876 -0.420606,9.362894 -0.104799,0.06642 -0.352926,0.121732 -0.551394,0.122924 -0.198467,0.0012 -0.437265,0.07858 -0.530661,0.171979 -0.209623,0.209622 -0.221094,0.71287 -0.02081,0.913149 0.09473,0.09473 1.280916,0.152119 3.256862,0.157567 2.568009,0.0071 3.144364,-0.02793 3.317991,-0.201558 z m 8.066055,0 C 73.526041,73.96616 73.182727,73.544727 72.176573,73.408189 71.730826,73.347699 71.294906,73.227106 71.207861,73.140202 71.102137,73.03465 71.034875,71.81 71.005251,69.45127 l -0.04435,-3.530925 h 1.711631 c 2.174531,0 2.623116,0.157489 2.76023,0.969061 0.106931,0.632918 0.355879,0.918864 0.736207,0.84562 0.389936,-0.0751 0.607089,-0.667753 0.613059,-1.673171 0.003,-0.505898 0.06566,-1.174531 0.139227,-1.485853 0.2605,-1.102327 -0.224159,-1.477558 -1.112923,-0.861644 -0.512086,0.354876 -0.596069,0.36636 -2.679076,0.36636 H 70.978842 V 61.17977 58.27882 h 2.058918 c 2.439852,0 2.804981,0.117185 2.960655,0.950196 0.05506,0.294611 0.165882,0.615256 0.246277,0.712544 0.195034,0.236012 0.610068,0.224162 0.858751,-0.02452 0.179273,-0.179273 0.364709,-1.475667 0.434285,-3.036119 0.02849,-0.638995 -0.290585,-0.847913 -0.937647,-0.613932 -0.339901,0.122909 -1.893196,0.172206 -5.426097,0.172206 -5.119106,0 -5.289493,0.01859 -5.289493,0.577013 0,0.347081 0.298458,0.54006 1.053363,0.681092 0.368186,0.06878 0.743476,0.1991 0.833978,0.289591 0.215703,0.215674 0.310807,10.172452 0.124079,12.990227 -0.142863,2.155839 -0.245012,2.443245 -0.868367,2.443245 -0.208395,0 -0.455316,0.07641 -0.548712,0.169812 -0.209623,0.209622 -0.221094,0.71287 -0.02081,0.913149 0.09473,0.09473 1.280916,0.152119 3.256862,0.157567 2.568009,0.0071 3.144364,-0.02793 3.317991,-0.201558 z m 16.537698,-0.08949 c 0.243533,-0.243533 0.369821,-0.609661 0.490758,-1.422784 0.278651,-1.873518 0.168327,-2.295861 -0.572296,-2.190869 -0.252263,0.03576 -0.376297,0.204627 -0.5473,0.745123 -0.35884,1.134205 -0.673517,1.282253 -2.725426,1.282253 -1.909303,0 -2.415176,-0.08977 -2.58478,-0.458685 -0.06293,-0.136875 -0.13912,-1.64254 -0.169319,-3.345923 l -0.05491,-3.09706 1.81645,0.0658 c 2.06455,0.07479 2.453243,0.205766 2.453243,0.826684 0,0.572393 0.455411,1.017185 0.881108,0.860563 0.290213,-0.106775 0.337748,-0.262382 0.48531,-1.588656 0.243575,-2.189226 0.236392,-2.355415 -0.109804,-2.540694 -0.248448,-0.132965 -0.376098,-0.103427 -0.742926,0.171909 -0.411616,0.308954 -0.595509,0.335859 -2.600956,0.380537 l -2.158024,0.04808 V 61.17641 58.246702 l 1.945759,0.05758 c 1.156276,0.03422 2.072476,0.127555 2.258066,0.230043 0.196758,0.108656 0.347566,0.368168 0.407604,0.701408 0.121292,0.673234 0.291102,0.882716 0.715547,0.882716 0.444099,0 0.548476,-0.292131 0.753124,-2.107856 0.210646,-1.868946 0.135087,-1.991943 -1.059448,-1.724618 -0.569382,0.127422 -2.042381,0.165679 -5.20686,0.135232 -2.427072,-0.02335 -4.492458,0.0067 -4.589746,0.06687 -0.197422,0.122022 -0.232194,0.635515 -0.06126,0.904651 0.06121,0.09638 0.453375,0.240105 0.871476,0.319396 0.4181,0.07929 0.796879,0.180862 0.841731,0.225714 0.122294,0.122294 0.09832,14.502896 -0.02491,14.942431 -0.103697,0.369862 -0.190282,0.422655 -0.980807,0.598024 -0.505346,0.112105 -0.673098,0.624367 -0.302538,0.923853 0.234289,0.189351 0.988314,0.226395 5.258364,0.258332 l 4.984854,0.03728 z m 33.165462,0.151706 c 0.22683,-0.186297 0.22914,-0.769176 0.004,-0.908573 -0.0953,-0.05891 -0.51516,-0.153497 -0.93298,-0.210196 -0.41783,-0.0567 -0.7956,-0.139009 -0.8395,-0.182909 -0.19904,-0.199039 -0.30216,-1.654271 -0.30994,-4.373896 l -0.008,-2.947023 1.99397,0.04607 c 1.89767,0.04385 2.00701,0.06221 2.26415,0.380147 0.14861,0.18374 0.27019,0.505321 0.27019,0.714624 0,0.464793 0.23409,0.720173 0.66012,0.720173 0.42513,0 0.61347,-0.39064 0.61347,-1.272403 0,-0.398733 0.0728,-1.16553 0.16168,-1.703991 0.1276,-0.772614 0.12394,-1.024497 -0.0173,-1.194715 -0.25091,-0.302327 -0.56503,-0.268719 -0.95991,0.102705 -0.31802,0.299123 -0.47919,0.321114 -2.66243,0.363297 l -2.32392,0.0449 v -2.92021 -2.920211 l 2.27697,0.04511 c 2.19613,0.04351 2.28657,0.05698 2.54718,0.379189 0.14861,0.183741 0.2702,0.481669 0.2702,0.662063 0,0.353717 0.33612,0.772735 0.61986,0.772735 0.49766,0 0.64441,-0.357737 0.80132,-1.953459 0.17827,-1.812924 0.0894,-2.116443 -0.56351,-1.925732 -0.19931,0.05821 -2.71852,0.142932 -5.59824,0.188266 l -5.23586,0.08243 v 0.495284 c 0,0.463334 0.0365,0.503086 0.56603,0.616229 1.0621,0.226938 1.17645,0.313836 1.27418,0.968258 0.05,0.334903 0.0684,3.633684 0.0409,7.330626 -0.0539,7.250627 -0.079,7.500016 -0.75488,7.500016 -0.76034,0 -1.21103,0.636947 -0.76575,1.082228 0.2001,0.200094 6.36674,0.217787 6.60883,0.01896 z m 38.74043,-0.06222 c 0.26329,-0.263289 0.26228,-0.335505 -0.0102,-0.724464 -0.16891,-0.241155 -0.36063,-0.314506 -0.82201,-0.314506 -0.33095,0 -0.72534,-0.09035 -0.87642,-0.20078 -0.26498,-0.193689 -0.2761,-0.464096 -0.3149,-7.656577 -0.0296,-5.487704 0.003,-7.507854 0.12346,-7.65301 0.09,-0.108468 0.36602,-0.197214 0.61333,-0.197214 0.52141,0 0.78928,-0.216113 0.78928,-0.636794 0,-0.597567 -0.19757,-0.636793 -3.20729,-0.636793 -2.74056,0 -2.87451,0.01278 -3.022,0.288364 -0.22109,0.413112 -0.0397,0.830116 0.40144,0.923019 0.20885,0.04398 0.51598,0.107257 0.68251,0.140617 0.16653,0.03336 0.35175,0.172643 0.4116,0.309518 0.17338,0.396568 0.24234,9.762765 0.0923,12.541526 -0.14511,2.688128 -0.17174,2.771676 -0.88456,2.775957 -0.19846,0.0012 -0.43726,0.07858 -0.53066,0.171979 -0.20962,0.209622 -0.22109,0.71287 -0.0208,0.913149 0.0947,0.09473 1.28091,0.152119 3.25686,0.157567 2.56801,0.0071 3.14436,-0.02793 3.31799,-0.201558 z m 29.99561,0.0045 c 0.46677,-0.46677 0.075,-0.887667 -0.95666,-1.02766 -0.44531,-0.06043 -0.85309,-0.1533 -0.90617,-0.206377 -0.2394,-0.239408 -0.30829,-2.030144 -0.31792,-8.264596 l -0.0103,-6.686335 1.45047,8.2e-4 c 1.7351,9.8e-4 3.02628,0.191673 3.36337,0.496734 0.13553,0.122654 0.28651,0.47373 0.33551,0.780168 0.0713,0.445653 0.16204,0.575469 0.45355,0.648635 0.6563,0.16472 0.79693,-0.161237 0.87369,-2.02501 0.0859,-2.086111 0.0406,-2.152564 -1.29946,-1.905647 -1.10142,0.202945 -11.45918,0.216234 -12.39413,0.0159 -1.63049,-0.349368 -1.53706,-0.358212 -1.75067,0.165713 -0.10727,0.263089 -0.31102,1.061713 -0.45279,1.77472 -0.21844,1.098622 -0.22838,1.331768 -0.0652,1.528384 0.34122,0.411146 0.88391,0.213728 1.25203,-0.455459 0.18226,-0.331322 0.46965,-0.679495 0.63863,-0.773719 0.18865,-0.105184 1.14308,-0.192644 2.47245,-0.226564 l 2.1652,-0.05525 -0.0426,7.26766 c -0.0315,5.383627 -0.0872,7.345542 -0.2148,7.56809 -0.10395,0.181302 -0.4266,0.364475 -0.81368,0.461944 -0.54115,0.136263 -0.64143,0.215406 -0.64143,0.50622 0,0.189587 0.10881,0.405601 0.24181,0.480029 0.13299,0.07443 1.62841,0.137767 3.32316,0.140752 2.57019,0.0045 3.11694,-0.03017 3.29593,-0.209155 z m 30.14819,-0.0066 c 0.49098,-0.490979 0.14586,-0.912697 -0.85846,-1.048985 -0.44574,-0.06049 -0.88166,-0.181069 -0.96871,-0.267954 -0.10282,-0.102628 -0.17438,-1.147166 -0.20426,-2.981384 l -0.046,-2.823409 h 1.3284 1.3284 l 2.18458,2.857426 c 3.19546,4.179636 3.68608,4.50108 6.86999,4.50108 1.38685,0 1.77751,-0.04443 1.95545,-0.222372 0.51527,-0.515264 0.17105,-0.924861 -0.90036,-1.071386 -0.47692,-0.06522 -1.07213,-0.224153 -1.32267,-0.353176 -0.7061,-0.363617 -2.28305,-2.02907 -4.2492,-4.487683 l -1.7938,-2.243101 0.7838,-0.866132 c 2.60118,-2.8744 2.44198,-6.693126 -0.34221,-8.208473 -1.24757,-0.679011 -2.22761,-0.797266 -6.62984,-0.799975 -3.79918,-0.0023 -3.99975,0.01076 -4.13865,0.270311 -0.1538,0.287375 -0.0591,0.717518 0.19645,0.89252 0.0835,0.05718 0.37846,0.104941 0.65545,0.106132 0.27699,0.0012 0.62722,0.0925 0.7783,0.202912 0.26332,0.192434 0.27655,0.453468 0.31962,6.304539 0.0456,6.202165 -0.0791,8.860658 -0.42628,9.080828 -0.10158,0.06442 -0.34707,0.11811 -0.54554,0.119302 -0.19846,0.0012 -0.43726,0.07858 -0.53066,0.171979 -0.21054,0.210538 -0.2208,0.713162 -0.0187,0.915274 0.0977,0.09771 1.24961,0.152637 3.25902,0.15541 2.54952,0.0035 3.14526,-0.03308 3.31587,-0.203683 z m -1.49015,-8.944609 -0.49528,-0.0875 -0.0378,-3.660861 -0.0378,-3.660861 1.31839,0.05766 c 1.11699,0.04885 1.41859,0.116382 1.97431,0.44206 1.15033,0.674138 1.67981,1.75931 1.70601,3.496521 0.0253,1.676577 -0.55157,2.927094 -1.54098,3.340494 -0.47703,0.199318 -1.95842,0.236516 -2.88684,0.07249 z m 20.48354,9.009052 c 0.0973,-0.07994 0.17688,-0.288946 0.17688,-0.464462 0,-0.446651 -0.23851,-0.590454 -1.11178,-0.670327 -0.41731,-0.03817 -0.81126,-0.155487 -0.87648,-0.261013 -0.21036,-0.340374 -0.29965,-1.844045 -0.25185,-4.241166 l 0.0467,-2.34231 1.04899,-1.761472 c 1.60685,-2.698253 3.58872,-5.657712 4.23052,-6.317285 0.39636,-0.407333 0.74647,-0.624053 1.11601,-0.690798 0.7737,-0.139745 1.03374,-0.309162 1.03374,-0.673474 0,-0.612791 -0.20008,-0.660117 -2.79077,-0.660117 h -2.45115 l -0.16905,0.37102 c -0.15216,0.333952 -0.13065,0.401638 0.2153,0.677487 0.21139,0.168556 0.38434,0.423532 0.38434,0.566612 0,0.251088 -3.67546,6.588884 -3.82246,6.59127 -0.0398,6.46e-4 -0.99145,-1.533467 -2.11469,-3.409141 l -2.04224,-3.410316 0.32233,-0.243136 c 0.23441,-0.176816 0.30944,-0.356323 0.27507,-0.658089 l -0.0473,-0.414952 -2.54717,-0.04027 c -1.40095,-0.02215 -2.68285,-0.0069 -2.84867,0.03383 -0.61676,0.151579 -0.40178,1.209269 0.24579,1.209269 0.43826,0 1.02119,0.35491 1.55693,0.94791 0.66036,0.730939 4.91685,7.448661 5.16465,8.151017 0.14204,0.402585 0.19676,1.29785 0.19526,3.194834 -0.002,2.781212 -0.10039,3.301593 -0.63827,3.382699 -0.71844,0.108333 -0.90366,0.193036 -0.98542,0.450634 -0.0484,0.15254 -0.0231,0.39869 0.0563,0.547 0.13517,0.252565 0.34418,0.269985 3.29794,0.27487 1.95662,0.0032 3.22077,-0.04995 3.33052,-0.140127 z M 138.76284,39.493403 c 0.002,-3.275757 0.53574,-5.780917 1.78118,-8.352613 1.22657,-2.532723 3.05451,-4.247568 4.80999,-4.512392 l 0.55424,-0.08361 -0.66372,0.690098 c -1.90625,1.981992 -2.35894,4.101412 -1.52266,7.12879 0.16125,0.583728 0.70554,2.195194 1.20952,3.581037 0.50399,1.385843 0.95384,2.70719 0.99967,2.936327 l 0.0833,0.416613 h 4.7723 4.77229 l 0.64468,-1.37972 c 2.63659,-5.642695 2.765,-11.768443 0.37983,-18.118459 -0.30941,-0.823746 -0.58201,-1.517161 -0.60577,-1.540922 -0.0238,-0.02376 -0.039,0.481556 -0.0338,1.122929 0.008,0.954709 -0.0491,1.276197 -0.31369,1.773208 -0.34253,0.64351 -0.84405,0.976251 -1.24154,0.82372 -0.20188,-0.07747 -0.22906,-0.2336 -0.16953,-0.973793 0.0843,-1.048473 0.67405,-2.537369 1.67086,-4.218516 1.69701,-2.862065 2.17007,-4.236266 2.16383,-6.285678 -0.005,-1.54671 -0.28975,-2.7204021 -1.04568,-4.3059115 -0.71922,-1.5084949 -1.54596,-2.6567414 -2.77427,-3.8531256 -1.39613,-1.3598451 -3.64412,-2.8597423 -2.56478,-1.711267 0.66071,0.7030322 1.52593,2.1918561 1.81196,3.117913 0.33839,1.0955714 0.37181,2.9050264 0.0719,3.8934115 -0.37521,1.2366166 -1.10866,2.4075686 -2.19662,3.5068936 -1.20204,1.214596 -2.24211,1.861456 -3.51894,2.188564 -1.48768,0.381128 -2.28375,-0.08864 -2.2822,-1.346735 9.5e-4,-0.775996 0.20171,-1.536486 0.652,-2.469904 0.18578,-0.385093 0.33777,-0.751244 0.33777,-0.813669 0,-0.06242 -0.42435,0.146233 -0.943,0.463684 -3.1531,1.929908 -5.74676,4.621638 -7.08801,7.356028 -1.36569,2.784195 -1.76478,4.84069 -1.79942,9.272305 -0.023,2.944552 -0.0527,3.316157 -0.29804,3.735216 -0.35902,0.613126 -0.86774,0.978313 -1.50746,1.082124 -0.44989,0.07301 -0.57945,0.02583 -0.95187,-0.346584 -0.71102,-0.711026 -0.55077,-1.87989 0.47831,-3.4886 0.2762,-0.431765 0.46629,-0.785027 0.42243,-0.785027 -0.0439,0 -0.44907,0.284193 -0.90048,0.631541 -1.45978,1.123274 -2.58336,2.732443 -3.0533,4.372866 -0.19159,0.668772 -0.22526,1.245651 -0.17347,2.971704 0.0668,2.226081 0.15081,2.613729 0.99261,4.580463 l 0.31696,0.740511 3.36085,0.0024 3.36086,0.0024 z"
     id="path11" /><path
     style="fill:#ac0202;stroke-width:0.777648"
     d="m 56.498691,32.029439 c -0.654624,-1.529427 -0.719946,-1.83088 -0.771901,-3.561988 -0.04028,-1.342262 -0.01407,-1.790871 0.134899,-2.31094 0.365448,-1.275672 1.239197,-2.527039 2.374393,-3.400551 0.351038,-0.270114 0.666148,-0.491116 0.700256,-0.491116 0.03414,0 -0.113715,0.274713 -0.328502,0.610474 -0.800262,1.251011 -0.92488,2.159976 -0.371957,2.712903 0.289612,0.289609 0.390364,0.326295 0.74022,0.269521 0.497477,-0.08073 0.893082,-0.364716 1.172274,-0.841512 0.190819,-0.32588 0.213876,-0.614858 0.23177,-2.904683 0.02139,-2.738365 0.148134,-3.766018 0.666405,-5.403965 0.951212,-3.006215 3.110072,-5.60831 6.244888,-7.5270266 0.403327,-0.2468651 0.733322,-0.4091276 0.733322,-0.3605829 0,0.048548 -0.118195,0.3332813 -0.262666,0.6327481 -0.350168,0.7258704 -0.506288,1.3172644 -0.507027,1.9207164 -0.0016,0.978358 0.617857,1.343669 1.774748,1.047286 0.992925,-0.254375 1.801733,-0.757405 2.736497,-1.701933 0.84605,-0.8548878 1.416416,-1.7654765 1.708198,-2.7271286 0.233209,-0.7686165 0.20722,-2.1757357 -0.05591,-3.0277044 -0.222431,-0.7201464 -0.895268,-1.8779275 -1.409067,-2.424639 -0.839347,-0.8931094 0.908798,0.2732826 1.994496,1.3307635 0.955189,0.9303657 1.598102,1.8232978 2.157402,2.996376 0.587847,1.232968 0.8095,2.1456874 0.813171,3.3484835 0.0047,1.593721 -0.363022,2.662366 -1.682699,4.888045 -0.775163,1.307341 -1.23375,2.465178 -1.299337,3.280521 -0.04627,0.57561 -0.02519,0.697026 0.131835,0.757269 0.309107,0.118615 0.699109,-0.14014 0.965477,-0.640565 0.205727,-0.386499 0.249952,-0.636504 0.243941,-1.378932 -0.0039,-0.498762 0.0078,-0.891722 0.02628,-0.873243 0.01851,0.01848 0.230464,0.55771 0.471076,1.198295 1.854823,4.938078 1.754965,9.701754 -0.295374,14.089785 l -0.501334,1.072936 h -3.711158 -3.71117 l -0.06478,-0.323978 c -0.03562,-0.178188 -0.385465,-1.205731 -0.777392,-2.283429 -0.896745,-2.46583 -1.156121,-3.396787 -1.23576,-4.435458 -0.118662,-1.547458 0.421119,-2.898923 1.584325,-3.966715 l 0.579309,-0.531796 -0.414245,0.05798 c -0.816772,0.114324 -1.71945,0.654396 -2.543213,1.521606 -0.626185,0.659207 -0.900695,1.068979 -1.382246,2.063323 -0.968514,1.999875 -1.383949,3.948008 -1.385131,6.495394 l -6.45e-4,1.40307 -2.613567,-0.0019 -2.613558,-0.0019 z"
     id="path10" /><path
     style="fill:#003567;stroke-width:0.777648"
     d="m 26.978058,78.708013 c -2.950606,-0.379236 -4.841969,-2.478534 -4.841969,-5.374295 0,-1.849424 1.131556,-3.759015 2.677202,-4.517991 1.23511,-0.606489 2.992623,-0.811128 4.695797,-0.54676 0.393411,0.06106 0.974929,0.141242 1.292264,0.178171 0.317335,0.03693 0.629737,0.130722 0.694227,0.208428 0.07809,0.09409 0.09139,0.55005 0.03983,1.36491 -0.06625,1.047075 -0.107895,1.239935 -0.288593,1.336641 -0.273879,0.146576 -0.527232,-0.05259 -0.527232,-0.414471 0,-1.043239 -0.901158,-1.598385 -2.709351,-1.669061 -1.475619,-0.05768 -2.180353,0.140473 -2.902706,0.816149 -0.29183,0.272973 -0.642491,0.748638 -0.786216,1.066487 -0.226345,0.500566 -0.259436,0.742478 -0.259436,1.896599 0,1.271533 0.01395,1.351188 0.359593,2.05329 0.46193,0.938311 1.418039,1.845744 2.305187,2.187828 0.871453,0.336031 2.388602,0.419681 3.047539,0.168031 0.592944,-0.226447 0.76446,-0.412522 1.023263,-1.110119 0.169379,-0.456557 0.250376,-0.550224 0.475796,-0.550224 0.236314,0 0.276233,0.05573 0.306751,0.428278 0.01929,0.235552 -0.0461,0.793191 -0.145327,1.239196 -0.217197,0.976255 -0.349418,1.072154 -1.714149,1.243276 -1.038513,0.130225 -1.703584,0.129159 -2.742467,-0.0047 z m 30.641395,0.01703 c -1.182281,-0.187009 -2.233662,-0.888739 -2.707537,-1.807103 -0.427232,-0.827991 -0.528777,-1.726782 -0.530799,-4.698249 -0.0023,-2.999921 -0.01524,-3.074246 -0.546632,-3.077437 -0.403965,-0.0024 -0.580351,-0.150306 -0.537837,-0.450939 l 0.03717,-0.262667 h 1.815738 1.815746 l 0.03445,0.298785 c 0.02885,0.250006 -0.0161,0.309895 -0.275116,0.366837 -0.170258,0.03743 -0.374212,0.08818 -0.453237,0.112778 -0.114936,0.03578 -0.136944,0.690465 -0.110045,3.272836 l 0.03367,3.228111 0.331815,0.648407 c 0.254058,0.496441 0.458478,0.72664 0.872234,0.982208 0.478486,0.29555 0.636917,0.3338 1.382603,0.3338 0.745819,0 0.903962,-0.0382 1.381998,-0.3338 0.412892,-0.255319 0.617826,-0.486249 0.871634,-0.982203 l 0.331815,-0.648403 0.03554,-3.022566 c 0.01952,-1.662411 0.007,-3.136348 -0.02792,-3.275416 -0.04938,-0.19667 -0.152582,-0.260432 -0.464551,-0.286977 -0.430693,-0.03664 -0.666056,-0.278386 -0.554386,-0.569394 0.05941,-0.154765 0.284472,-0.180025 1.604156,-0.180025 1.674385,0 1.883215,0.03642 1.883215,0.328433 0,0.245764 -0.196909,0.409975 -0.550217,0.458847 l -0.275117,0.03806 -0.07069,3.026231 c -0.07794,3.336639 -0.172646,3.934992 -0.770291,4.866341 -0.813436,1.267623 -2.667955,1.932357 -4.557298,1.633507 z m 30.103321,4.19e-4 c -2.912891,-0.425583 -4.604742,-2.102717 -4.894043,-4.851443 -0.153056,-1.454218 0.466776,-3.178976 1.520683,-4.231483 1.324771,-1.323014 3.289211,-1.740512 6.2204,-1.322011 1.894957,0.270553 1.688904,0.07002 1.646397,1.60233 -0.03562,1.284526 -0.104345,1.522733 -0.441432,1.53034 -0.176013,0.004 -0.42056,-0.367224 -0.420941,-0.638933 -6.53e-4,-0.46944 -0.370518,-0.95211 -0.949897,-1.23962 -0.484047,-0.240204 -0.672253,-0.265428 -1.965878,-0.263463 -1.276751,0.0019 -1.487035,0.02998 -1.955537,0.260774 -0.288725,0.142231 -0.719355,0.47945 -0.95695,0.749376 -0.627461,0.712829 -0.829035,1.391216 -0.829035,2.790059 0,1.119328 0.01485,1.19136 0.410987,1.992751 0.728563,1.473923 2.073917,2.387393 3.666681,2.48961 1.649072,0.105831 2.286775,-0.185224 2.671252,-1.219191 0.227034,-0.610553 0.521242,-0.785677 0.785331,-0.467462 0.116375,0.14022 0.110667,0.341705 -0.03165,1.116667 -0.21537,1.172956 -0.364336,1.409973 -0.984246,1.56607 -0.651024,0.163928 -2.742493,0.245161 -3.492137,0.135629 z M 37.436702,78.448006 c -0.213558,-0.257319 -0.09186,-0.551545 0.244197,-0.590331 0.16595,-0.01915 0.351831,-0.128449 0.413071,-0.242878 0.07092,-0.132518 0.100869,-1.697314 0.08249,-4.310102 l -0.02885,-4.102049 -0.418266,-0.06796 c -0.533459,-0.08668 -0.719861,-0.259271 -0.557822,-0.516485 0.10324,-0.163879 0.351808,-0.19365 1.83542,-0.219828 1.607181,-0.02836 1.723323,-0.01663 1.83119,0.184936 0.14399,0.269046 -0.108077,0.560633 -0.484653,0.560633 -0.342749,0 -0.386826,0.215295 -0.38863,1.898273 l -0.0016,1.40307 h 2.588992 2.588993 l -0.03048,-1.621418 -0.03048,-1.621418 -0.418259,-0.06786 c -0.533419,-0.08655 -0.719876,-0.259151 -0.557838,-0.516386 0.103008,-0.163521 0.349965,-0.19373 1.798452,-0.219995 1.60893,-0.02918 1.983788,0.02962 1.983788,0.311171 0,0.180805 -0.354079,0.434565 -0.606364,0.434565 -0.222524,0 -0.270839,0.06888 -0.331356,0.472428 -0.03896,0.259835 -0.05436,2.168205 -0.03422,4.24082 0.04005,4.127117 0.01322,3.975144 0.702356,3.978604 0.315368,0.0016 0.599746,0.165628 0.599746,0.345968 0,0.0441 -0.07782,0.15799 -0.172926,0.253104 -0.231794,0.231786 -3.303332,0.255667 -3.614555,0.02807 -0.27542,-0.201387 -0.181861,-0.562088 0.157124,-0.605757 0.505603,-0.06513 0.549105,-0.251442 0.549105,-2.351699 V 73.545707 H 42.53882 39.942276 l 0.03803,2.039925 c 0.04168,2.237267 0.04479,2.246912 0.721914,2.250137 0.445787,0.0021 0.672697,0.335051 0.40846,0.59929 -0.245092,0.245091 -3.471927,0.256452 -3.67403,0.01291 z m 31.957144,7.78e-4 c -0.275979,-0.204928 -0.09889,-0.541332 0.31088,-0.590587 0.155219,-0.01866 0.322001,-0.117698 0.370628,-0.22009 0.138833,-0.29232 0.18522,-7.838157 0.05039,-8.192849 -0.08931,-0.234905 -0.186659,-0.301699 -0.439705,-0.301699 -0.436347,0 -0.709037,-0.273255 -0.556719,-0.557866 0.106258,-0.198536 0.251569,-0.212447 2.219175,-0.212447 3.134427,0 3.960565,0.212098 4.649958,1.193791 0.314263,0.447516 0.334614,0.538211 0.333183,1.484671 -0.0016,1.134199 -0.08012,1.342133 -0.873384,2.316047 l -0.486403,0.59717 0.887592,1.083239 c 1.122861,1.37037 2.036287,2.319025 2.435422,2.529342 0.171067,0.09014 0.512626,0.198308 0.759024,0.240371 0.559136,0.09545 0.788908,0.399332 0.477048,0.630907 -0.273818,0.203339 -1.57354,0.210688 -2.334834,0.01322 -0.776108,-0.201317 -1.047243,-0.448448 -2.526824,-2.303082 -1.086063,-1.361358 -1.342259,-1.623161 -1.588385,-1.623161 -0.161408,0 -0.529959,-0.03241 -0.819011,-0.07203 l -0.525542,-0.07203 0.07962,1.585149 c 0.04378,0.871832 0.123825,1.631209 0.177864,1.687505 0.05405,0.05629 0.309691,0.130576 0.568126,0.165067 0.38954,0.05199 0.476224,0.10762 0.507019,0.325378 0.02045,0.144465 -0.02908,0.304653 -0.110045,0.355962 -0.08095,0.05132 -0.868143,0.09405 -1.749311,0.09497 -1.225092,0.0016 -1.652401,-0.03562 -1.815739,-0.156937 z m 4.800912,-5.316117 c 0.816223,-0.913518 0.652544,-2.678046 -0.317024,-3.417585 -0.329886,-0.251617 -0.518793,-0.302329 -1.250031,-0.335574 l -0.861416,-0.03916 v 2.040171 2.040171 l 0.302622,0.05126 c 0.16644,0.0282 0.642687,0.04191 1.058317,0.03049 0.697853,-0.01918 0.779561,-0.04748 1.067532,-0.36978 z m 23.920769,5.316117 c -0.275979,-0.204928 -0.09889,-0.541332 0.310888,-0.590587 0.155211,-0.01866 0.320671,-0.117698 0.36768,-0.22009 0.124043,-0.270164 0.190835,-7.603446 0.07341,-8.056706 -0.0647,-0.249731 -0.173089,-0.393577 -0.312249,-0.414447 -0.534858,-0.08021 -0.688802,-0.143887 -0.753121,-0.311505 -0.15843,-0.412848 0.109174,-0.482203 1.860523,-0.482203 1.351572,0 1.705212,0.0319 1.814572,0.163665 0.20005,0.241048 0.0599,0.475093 -0.34778,0.580731 -0.46136,0.11955 -0.50672,0.292042 -0.52045,1.979212 l -0.011,1.348048 h 2.64107 2.64108 l -0.011,-1.348048 c -0.0126,-1.549444 -0.0784,-1.884279 -0.37901,-1.92949 -0.6701,-0.100776 -0.725,-0.135819 -0.6899,-0.440311 l 0.0345,-0.298785 1.71749,-0.03023 c 1.42438,-0.02507 1.74103,-0.0019 1.85556,0.136155 0.20241,0.243892 0.0635,0.477438 -0.34712,0.583856 -0.31807,0.08242 -0.37168,0.1515 -0.45191,0.582223 -0.1392,0.747339 -0.0362,7.782365 0.11617,7.93474 0.0687,0.06867 0.30769,0.154616 0.53115,0.190982 0.48698,0.07925 0.70655,0.349696 0.49291,0.607117 -0.20311,0.244734 -3.37408,0.258164 -3.70063,0.01563 -0.28238,-0.20968 -0.0978,-0.534246 0.34838,-0.612525 0.28825,-0.05057 0.32526,-0.107833 0.39126,-0.605246 0.04,-0.302164 0.0772,-1.25505 0.0825,-2.117526 l 0.01,-1.568139 h -2.6576 -2.65759 l 0.0616,1.992835 c 0.0354,1.146606 0.11015,2.041427 0.17599,2.107265 0.0629,0.06293 0.29726,0.144183 0.52071,0.180549 0.52146,0.08486 0.74049,0.397219 0.43672,0.622787 -0.16316,0.121158 -0.59355,0.158625 -1.822214,0.158625 -1.228661,0 -1.659058,-0.03748 -1.822216,-0.158625 z M -13.298331,63.751723 v -0.550224 h 78.296864 78.296857 v 0.550224 0.550224 H 64.998533 -13.298331 Z m 78.6378,-4.876184 C 65.176863,58.712934 63.571346,54.822597 60.886944,48.086596 56.661857,37.484563 56.227347,36.452119 55.845304,36.107171 55.511296,35.805586 54.8706,35.581946 54.13094,35.508755 c -0.377914,-0.0374 -0.773776,-0.143319 -0.879692,-0.235387 -0.255247,-0.221872 -0.244274,-0.631813 0.02411,-0.900182 0.207888,-0.207885 0.383061,-0.216564 4.319259,-0.213998 4.522078,0.003 4.59779,0.01358 4.59779,0.645436 0,0.46467 -0.226195,0.623374 -1.004371,0.70471 -0.380426,0.03976 -0.740858,0.121466 -0.800955,0.181562 -0.07232,0.07232 0.02387,0.490648 0.28462,1.237319 0.771419,2.209282 5.978612,16.038016 6.0393,16.038563 0.126959,0.0012 4.105282,-10.230085 5.605272,-14.415308 0.379609,-1.059181 0.713881,-2.153695 0.742825,-2.432253 0.05171,-0.49751 0.04635,-0.507729 -0.303711,-0.577735 -0.195982,-0.03919 -0.540543,-0.07126 -0.765695,-0.07126 -0.479257,0 -0.773612,-0.264033 -0.773612,-0.693908 0,-0.590844 0.174426,-0.6185 3.887062,-0.616328 3.207581,0.0019 3.399574,0.01338 3.60212,0.21593 0.4576,0.457603 0.08966,1.090609 -0.6389,1.099136 -0.494366,0.0058 -1.17515,0.23431 -1.45648,0.488908 -0.350432,0.31714 -0.920611,1.536633 -2.36746,5.063523 -4.824451,11.76023 -7.239927,17.376336 -7.679298,17.854764 -0.307669,0.335023 -0.885073,0.33186 -1.223637,-0.0067 z M 35.177704,58.689134 c -1.647541,-0.296444 -3.213794,-1.132246 -4.185109,-2.233307 -0.648174,-0.734754 -1.443296,-2.337174 -1.649087,-3.323424 -0.573987,-2.750839 0.408813,-5.711656 2.451984,-7.386939 0.702903,-0.576342 2.075919,-1.257514 2.995744,-1.486235 1.00144,-0.249012 3.397218,-0.193826 4.434717,0.102153 2.666563,0.760723 4.418449,2.489331 5.041462,4.974476 0.215929,0.861303 0.186511,2.957763 -0.05381,3.837527 -0.726012,2.65741 -2.685024,4.636551 -5.295659,5.350077 -0.77285,0.211229 -2.950847,0.307704 -3.740215,0.165672 z m 3.04702,-1.44374 c 1.758736,-0.373166 2.98938,-1.644392 3.460013,-3.574105 0.250348,-1.026467 0.252027,-3.050702 0.0031,-4.005297 -0.771567,-2.961624 -3.097971,-4.630961 -5.856164,-4.202153 -2.634073,0.409509 -4.113053,2.358913 -4.120014,5.430476 -0.0095,4.20563 2.962951,7.104286 6.512829,6.351079 z m 47.902402,1.432259 c -3.056429,-0.440768 -5.348174,-2.212304 -6.177092,-4.774937 -0.387673,-1.198489 -0.480299,-3.072523 -0.211567,-4.280409 0.298632,-1.342323 0.943217,-2.509121 1.922463,-3.479988 0.958902,-0.950698 1.543405,-1.293453 2.927985,-1.716965 0.931684,-0.284985 1.107129,-0.302029 3.078833,-0.299117 1.508116,0.0023 2.336218,0.05388 2.971214,0.18535 0.484195,0.100245 1.056591,0.182272 1.271991,0.182282 0.781171,3.8e-5 0.808731,0.07708 0.727957,2.034653 -0.04402,1.066201 -0.121586,1.796493 -0.201038,1.892234 -0.161066,0.194068 -0.646109,0.146284 -0.76435,-0.0753 -0.04845,-0.09079 -0.117837,-0.396659 -0.154192,-0.679717 -0.08949,-0.696775 -0.444146,-1.185564 -1.127271,-1.553643 -1.467119,-0.7905 -4.233501,-0.832995 -5.911346,-0.0908 -0.640728,0.283425 -1.502681,1.14921 -1.874366,1.882691 -0.387105,0.763908 -0.602016,1.824451 -0.602366,2.972503 -5.75e-4,1.898264 0.536173,3.207033 1.854683,4.522338 1.375807,1.372458 2.903489,1.934601 4.967507,1.827893 1.105715,-0.05716 1.738168,-0.248865 2.179639,-0.660666 0.309885,-0.289051 0.622313,-0.876422 0.728936,-1.370411 0.132472,-0.613753 0.952907,-0.626778 1.027195,-0.01631 0.05397,0.443391 -0.40307,2.557998 -0.613945,2.840675 -0.251071,0.336554 -0.797548,0.525633 -1.929368,0.66755 -1.046598,0.131232 -3.148098,0.126146 -4.091502,-0.0099 z m 25.475364,-0.03778 c -2.61746,-0.560441 -4.47481,-2.178727 -5.33959,-4.652328 -0.39127,-1.119168 -0.49761,-3.096738 -0.22831,-4.245768 0.61681,-2.631841 2.62187,-4.709369 5.23776,-5.427089 1.11204,-0.305108 3.52103,-0.279155 4.67195,0.05034 1.35707,0.388503 2.30936,0.938763 3.26178,1.884738 1.3493,1.340165 1.89476,2.750764 1.89549,4.901836 7.6e-4,2.259709 -0.66837,3.895226 -2.2296,5.449623 -1.01179,1.007363 -1.94356,1.557541 -3.25284,1.920682 -0.9046,0.250896 -3.09533,0.31524 -4.01664,0.117973 z m 3.44664,-1.435291 c 2.31759,-0.603654 3.50402,-2.483179 3.50828,-5.557785 0.004,-2.713582 -1.04126,-4.741662 -2.9209,-5.668573 -1.08924,-0.537145 -1.94191,-0.681054 -3.0652,-0.517332 -1.10396,0.160904 -1.90662,0.522704 -2.60141,1.172601 -1.04484,0.977327 -1.55421,2.376256 -1.55708,4.276289 -0.005,3.208881 1.55061,5.601156 4.07003,6.25969 0.89862,0.234886 1.75435,0.246593 2.56628,0.03511 z M -11.28214,58.37918 c -0.329678,-0.329649 -0.128659,-0.625555 0.539206,-0.793725 0.8270818,-0.208261 0.8009692,0.03993 0.8009692,-7.612874 0,-7.58771 0.083886,-6.974654 -0.9740122,-7.118214 -0.693036,-0.09405 -0.676416,-0.08523 -0.776769,-0.412223 -0.161142,-0.525075 0.0451,-0.56474 2.9292781,-0.56339 1.4701888,6.88e-4 2.7597307,0.04639 2.8656487,0.101572 0.2590843,0.134965 0.2463239,0.606293 -0.020273,0.748974 -0.1170702,0.06265 -0.3839451,0.113916 -0.5930546,0.113916 -0.2102877,0 -0.496302,0.09398 -0.639992,0.210281 l -0.259792,0.210279 -0.034559,5.31947 c -0.035896,5.526121 0.058129,7.618164 0.363349,8.083985 0.2397792,0.36595 0.5693706,0.426783 2.3122829,0.426783 1.2664769,0 1.6040765,-0.03468 1.8971923,-0.194846 0.3701278,-0.202257 0.7172131,-0.761515 0.847571,-1.365688 0.095781,-0.44392 0.316523,-0.628019 0.6520463,-0.543809 0.37627744,0.09444 0.41735048,0.408515 0.2248227,1.719187 -0.1732157,1.179203 -0.3225451,1.555793 -0.6962205,1.755779 -0.3387233,0.181277 -9.2516489,0.100572 -9.4376939,-0.08546 z m 10.75482605,0.0522 c -0.15574657,-0.155747 -0.14682617,-0.547096 0.0161829,-0.710109 0.0726323,-0.07263 0.25833003,-0.132812 0.41266751,-0.133739 0.15433826,-9.33e-4 0.34729374,-0.04395 0.42879048,-0.09559 0.25647689,-0.162543 0.36411971,-2.558712 0.32708345,-7.281037 -0.0385402,-4.914397 -0.0272488,-4.836657 -0.70258327,-4.836657 -0.5696311,0 -0.86823396,-0.61362 -0.44097156,-0.906184 0.0649414,-0.04447 1.08371403,-0.08085 2.26394424,-0.08085 1.1802303,0 2.1990052,0.03638 2.2639451,0.08085 0.4034695,0.276272 0.1312841,0.906184 -0.3915629,0.906184 -0.6987417,0 -0.674322,-0.233681 -0.6389546,6.114508 0.022622,4.060197 0.068402,5.795786 0.155161,5.882485 0.067694,0.06764 0.4066835,0.161473 0.7533178,0.208512 0.782433,0.106178 1.0494115,0.433905 0.6658978,0.817419 -0.1350208,0.13502 -0.5832221,0.162247 -2.5802294,0.156741 -1.53659053,-0.0042 -2.45902501,-0.04887 -2.53269239,-0.122532 z m 6.27255235,0 c -0.1557465,-0.155747 -0.1468261,-0.547096 0.016183,-0.710109 0.072632,-0.07263 0.2646469,-0.132054 0.4267048,-0.132054 0.4847508,0 0.5641868,-0.2235 0.675284,-1.899984 0.1452086,-2.191238 0.071248,-9.934107 -0.09649,-10.101825 -0.070377,-0.07037 -0.3622223,-0.17171 -0.6485414,-0.2252 -0.5870505,-0.109673 -0.8191457,-0.259743 -0.8191457,-0.52965 0,-0.434259 0.1325011,-0.448713 4.113364,-0.448713 2.7473539,0 3.9552709,-0.03834 4.2195939,-0.133916 0.503187,-0.181955 0.751315,-0.01949 0.729159,0.477423 -0.05411,1.213483 -0.198309,2.221621 -0.33772,2.361032 -0.193388,0.193388 -0.516139,0.202603 -0.667806,0.01907 -0.06252,-0.07566 -0.148702,-0.325005 -0.191517,-0.554108 -0.121056,-0.647786 -0.404998,-0.738915 -2.302344,-0.738915 H 9.2608493 v 2.255918 2.255917 h 1.6722677 c 1.619846,0 1.685156,-0.0089 2.083378,-0.284899 0.691146,-0.478964 1.06804,-0.187166 0.865463,0.670056 -0.05721,0.242099 -0.105934,0.76206 -0.10827,1.155471 -0.0047,0.781861 -0.173511,1.242741 -0.476744,1.301138 -0.295761,0.05696 -0.489355,-0.165407 -0.57251,-0.657595 -0.106626,-0.631117 -0.455468,-0.753588 -2.146488,-0.753588 H 9.2468998 l 0.034489,2.745817 c 0.023034,1.834262 0.075346,2.786608 0.1575593,2.868691 0.067694,0.06758 0.4066827,0.16136 0.7533169,0.208399 0.782434,0.106179 1.049411,0.433905 0.665898,0.817419 -0.135021,0.135021 -0.583223,0.162248 -2.5802295,0.156741 -1.5365906,-0.0042 -2.459025,-0.04887 -2.5326924,-0.122532 z M 15.498046,58.3527 c -0.288165,-0.232895 -0.157713,-0.631254 0.235269,-0.718433 0.61475,-0.136375 0.682082,-0.177429 0.762722,-0.465052 0.09583,-0.341803 0.114476,-11.524851 0.01937,-11.619953 -0.03488,-0.03488 -0.329435,-0.113865 -0.65457,-0.175526 -0.325135,-0.06166 -0.630101,-0.17343 -0.677702,-0.248377 -0.132926,-0.209293 -0.105886,-0.60861 0.04764,-0.7035 0.07566,-0.04676 1.681799,-0.07016 3.569207,-0.052 2.460851,0.02368 3.606326,-0.0061 4.049105,-0.105163 0.928928,-0.207884 0.987686,-0.112236 0.823878,1.341146 -0.159145,1.411995 -0.240313,1.63917 -0.585666,1.63917 -0.330069,0 -0.462121,-0.162903 -0.556444,-0.686442 -0.04669,-0.259143 -0.163964,-0.460952 -0.316972,-0.545449 -0.144324,-0.0797 -0.856805,-0.152284 -1.755981,-0.178892 l -1.513116,-0.04478 v 2.278282 2.278282 l 1.678184,-0.03739 c 1.559532,-0.03475 1.702536,-0.05566 2.022628,-0.295924 0.285263,-0.214114 0.38453,-0.237085 0.577735,-0.133685 0.269219,0.144082 0.274805,0.273319 0.08539,1.975766 -0.114751,1.031375 -0.151717,1.152382 -0.3774,1.235416 -0.331043,0.121796 -0.685192,-0.224095 -0.685192,-0.669216 0,-0.482855 -0.302267,-0.584712 -1.90776,-0.642869 l -1.412559,-0.05117 0.0427,2.408423 c 0.02349,1.324632 0.08274,2.49551 0.13167,2.60195 0.131893,0.286886 0.525284,0.356696 2.01005,0.356696 1.595663,0 1.840371,-0.115129 2.119422,-0.997142 0.13298,-0.420316 0.229435,-0.551635 0.425607,-0.579443 0.575944,-0.08165 0.661737,0.246787 0.445044,1.703725 -0.09405,0.632323 -0.192254,0.917042 -0.381637,1.106425 l -0.255004,0.255003 -3.876462,-0.02899 c -3.320596,-0.02484 -3.906962,-0.05364 -4.089156,-0.200892 z m 28.872337,0.07811 c -0.346271,-0.346272 0.0039,-0.841592 0.595484,-0.841592 0.525573,0 0.545092,-0.193937 0.587031,-5.832373 0.02139,-2.87492 0.007,-5.440211 -0.03181,-5.700647 -0.07598,-0.50891 -0.164923,-0.576486 -0.990863,-0.752964 -0.411781,-0.08799 -0.440173,-0.118899 -0.440173,-0.47921 v -0.385156 l 4.071657,-0.0641 c 2.239409,-0.03525 4.198467,-0.101136 4.35346,-0.146405 0.507774,-0.148306 0.576844,0.08772 0.438213,1.497542 -0.122021,1.24091 -0.236141,1.519104 -0.623145,1.519104 -0.22065,0 -0.482033,-0.325849 -0.482033,-0.600916 0,-0.140283 -0.09455,-0.371966 -0.21012,-0.514852 -0.202663,-0.250568 -0.272994,-0.261038 -1.98081,-0.294876 l -1.770681,-0.03508 v 2.270896 2.270896 l 1.807191,-0.03492 c 1.697793,-0.0328 1.823126,-0.0499 2.070434,-0.282517 0.307078,-0.288837 0.551353,-0.314972 0.746472,-0.07987 0.109851,0.13237 0.112697,0.328246 0.01345,0.929068 -0.06913,0.418733 -0.125731,1.015031 -0.125731,1.325105 0,0.685701 -0.146462,0.989482 -0.477063,0.989482 -0.331302,0 -0.513341,-0.198596 -0.513341,-0.560041 0,-0.162764 -0.09455,-0.412841 -0.210113,-0.555726 -0.199965,-0.247247 -0.284993,-0.261523 -1.760712,-0.295621 l -1.550607,-0.03583 0.0062,2.291747 c 0.0062,2.114911 0.08624,3.246569 0.241024,3.401351 0.03414,0.03414 0.327911,0.09815 0.652836,0.142239 0.324917,0.04409 0.651405,0.117649 0.72553,0.163459 0.175399,0.108402 0.173602,0.561676 -0.0031,0.70655 -0.188261,0.154616 -4.983737,0.140857 -5.139344,-0.01474 z m 30.152845,5.7e-4 c -0.155747,-0.155746 -0.146827,-0.547096 0.01617,-0.710108 0.07263,-0.07263 0.258335,-0.132812 0.412663,-0.133739 0.554323,-0.0033 0.575032,-0.0683 0.687877,-2.158718 0.116647,-2.160898 0.06299,-9.444503 -0.07178,-9.752894 -0.0465,-0.10644 -0.190578,-0.214753 -0.32008,-0.240696 -0.129502,-0.02594 -0.368341,-0.07515 -0.530749,-0.10935 -0.343075,-0.07224 -0.484109,-0.396528 -0.312179,-0.717784 0.114695,-0.214306 0.218861,-0.224246 2.350049,-0.224246 2.340503,0 2.494143,0.03051 2.494143,0.495201 0,0.327142 -0.208309,0.495202 -0.613783,0.495202 -0.19232,0 -0.406951,0.06902 -0.476954,0.153363 -0.09368,0.11288 -0.119027,1.683846 -0.09601,5.951348 0.03017,5.593219 0.03881,5.803501 0.244882,5.954123 0.117487,0.08588 0.424183,0.156136 0.681546,0.156136 0.358791,0 0.507882,0.05704 0.639234,0.244575 0.211863,0.302473 0.212648,0.358632 0.0079,0.563378 -0.135023,0.135021 -0.58322,0.162248 -2.580228,0.156741 -1.536594,-0.0042 -2.459021,-0.04887 -2.532687,-0.122532 z m 23.291622,0.02245 c -0.103427,-0.05788 -0.188043,-0.225862 -0.188043,-0.373294 0,-0.226151 0.07798,-0.287696 0.498806,-0.393661 0.301012,-0.0758 0.551921,-0.21824 0.632757,-0.359229 0.09922,-0.173064 0.142527,-1.698744 0.167039,-5.885311 l 0.03313,-5.651682 -1.683764,0.04296 c -1.033782,0.02638 -1.775993,0.09439 -1.922696,0.176187 -0.131407,0.07327 -0.354895,0.344029 -0.496629,0.601681 -0.286268,0.520392 -0.70829,0.673914 -0.973639,0.354187 -0.126889,-0.152898 -0.119159,-0.334203 0.0507,-1.188545 0.110247,-0.554468 0.268693,-1.175517 0.352111,-1.380107 0.166113,-0.40743 0.09346,-0.400552 1.361405,-0.128867 0.727062,0.155789 8.781753,0.145455 9.638273,-0.01236 1.04209,-0.192015 1.07734,-0.140338 1.01052,1.481922 -0.0597,1.44936 -0.16905,1.70284 -0.67942,1.574746 -0.22669,-0.0569 -0.29729,-0.157849 -0.3527,-0.50441 -0.0381,-0.238301 -0.15552,-0.511315 -0.26091,-0.606696 -0.26214,-0.23723 -1.26622,-0.385523 -2.61552,-0.386285 l -1.12796,-6.37e-4 0.008,5.199615 c 0.008,4.84821 0.0611,6.240772 0.24723,6.426947 0.0413,0.04128 0.35839,0.113496 0.70469,0.160489 0.80222,0.108865 1.10692,0.436175 0.74394,0.799158 -0.13919,0.139188 -0.56437,0.166169 -2.56307,0.162649 -1.317924,-0.0023 -2.480834,-0.05157 -2.584254,-0.109456 z m 23.47905,-0.02079 c -0.15717,-0.157172 -0.14919,-0.548037 0.0145,-0.711761 0.0726,-0.07263 0.25833,-0.132813 0.41266,-0.133739 0.15434,-9.34e-4 0.34525,-0.04268 0.42424,-0.09278 0.26995,-0.171215 0.367,-2.238587 0.3315,-7.061689 -0.0335,-4.550074 -0.0438,-4.753067 -0.24856,-4.902712 -0.11748,-0.08586 -0.38984,-0.156868 -0.60524,-0.157795 -0.2154,-9.33e-4 -0.44477,-0.03806 -0.50971,-0.08253 -0.19874,-0.13609 -0.27237,-0.47059 -0.15277,-0.694066 0.10802,-0.201838 0.26399,-0.212025 3.21842,-0.210207 3.42338,0.0021 4.18551,0.09407 5.15568,0.622099 2.16512,1.178406 2.28892,4.148031 0.26612,6.383303 l -0.60952,0.673546 1.39494,1.744343 c 1.52897,1.911936 2.75529,3.207072 3.30438,3.489838 0.19484,0.100335 0.6577,0.223926 1.02858,0.274647 0.83318,0.113945 1.10086,0.432467 0.70016,0.833161 -0.13838,0.13838 -0.44217,0.172927 -1.52065,0.172927 -2.47596,0 -2.85749,-0.24997 -5.34244,-3.500256 l -1.69883,-2.222072 h -1.03303 -1.03303 l 0.0358,2.195619 c 0.0233,1.426376 0.0789,2.238659 0.15885,2.318467 0.0677,0.06756 0.40668,0.161335 0.75331,0.208374 0.78101,0.105984 1.04939,0.433932 0.66758,0.815741 -0.13267,0.132672 -0.59595,0.161129 -2.57858,0.158394 -1.56261,-0.0022 -2.45838,-0.04487 -2.53437,-0.120854 z m 6.19909,-7.049669 c 0.76941,-0.321479 1.21801,-1.293941 1.19834,-2.597728 -0.0204,-1.350939 -0.43213,-2.194821 -1.32668,-2.719063 -0.43215,-0.253263 -0.66669,-0.305777 -1.53532,-0.343767 l -1.02524,-0.04484 0.0294,2.846861 0.0294,2.846862 0.38515,0.06804 c 0.72199,0.127555 1.87399,0.09863 2.24495,-0.05637 z m 8.52943,6.957461 c -0.0618,-0.115333 -0.0814,-0.306751 -0.0438,-0.425374 0.0636,-0.20032 0.20761,-0.26619 0.76631,-0.350434 0.41828,-0.06308 0.49464,-0.467746 0.49635,-2.63055 7.7e-4,-1.475186 -0.0414,-2.171387 -0.15185,-2.484456 -0.1927,-0.546186 -3.50275,-5.77021 -4.01628,-6.338623 -0.41661,-0.461145 -0.86993,-0.73714 -1.21074,-0.73714 -0.50358,0 -0.67076,-0.822511 -0.19114,-0.940386 0.12895,-0.03169 1.12582,-0.04353 2.21526,-0.02631 l 1.98081,0.03132 0.0368,0.322687 c 0.0267,0.234667 -0.0317,0.374261 -0.21391,0.511761 l -0.25066,0.189074 1.58815,2.652026 c 0.87348,1.458614 1.6135,2.651614 1.64448,2.651112 0.11431,-0.0019 2.97253,-4.93043 2.97253,-5.125688 0,-0.111266 -0.1345,-0.309548 -0.29888,-0.440625 -0.26903,-0.214514 -0.28576,-0.267149 -0.16743,-0.526847 l 0.13146,-0.288523 h 1.90613 c 2.01465,0 2.17024,0.03681 2.17024,0.513339 0,0.283307 -0.20222,0.415053 -0.80389,0.523726 -0.28737,0.05191 -0.55963,0.220436 -0.86786,0.537198 -0.49909,0.512915 -2.04029,2.814333 -3.28985,4.912624 l -0.81575,1.369805 -0.0363,1.821493 c -0.0372,1.864117 0.0323,3.033444 0.19585,3.298135 0.0507,0.08206 0.35708,0.173295 0.6816,0.202976 0.67909,0.06211 0.86457,0.173941 0.86457,0.521279 0,0.136489 -0.0619,0.299024 -0.13755,0.361188 -0.0854,0.07013 -1.06841,0.111486 -2.58997,0.108969 -2.29699,-0.0038 -2.45952,-0.01735 -2.56464,-0.213752 z M 67.474541,21.164396 c 0,-0.06052 0.05241,-0.110045 0.116538,-0.110045 0.06408,0 0.08593,0.04952 0.04853,0.110045 -0.03741,0.06052 -0.08985,0.110044 -0.116538,0.110044 -0.02667,0 -0.04852,-0.04952 -0.04852,-0.110044 z"
     id="path9" /></g></svg>
