<?xml version="1.0" encoding="UTF-8" standalone="no"?>
<!-- Created with Inkscape (http://www.inkscape.org/) -->

<svg
   width="600mm"
   height="300mm"
   viewBox="0 0 600 300"
   version="1.1"
   id="svg1"
   inkscape:version="1.3 (0e150ed6c4, 2023-07-21)"
   sodipodi:docname="lovLogo.svg"
   xmlns:inkscape="http://www.inkscape.org/namespaces/inkscape"
   xmlns:sodipodi="http://sodipodi.sourceforge.net/DTD/sodipodi-0.dtd"
   xmlns="http://www.w3.org/2000/svg"
   xmlns:svg="http://www.w3.org/2000/svg">
  <sodipodi:namedview
     id="namedview1"
     pagecolor="#ffffff"
     bordercolor="#000000"
     borderopacity="0.25"
     inkscape:showpageshadow="2"
     inkscape:pageopacity="0.0"
     inkscape:pagecheckerboard="0"
     inkscape:deskcolor="#d1d1d1"
     inkscape:document-units="mm"
     inkscape:zoom="0.29041807"
     inkscape:cx="1138.0146"
     inkscape:cy="485.50698"
     inkscape:window-width="1440"
     inkscape:window-height="890"
     inkscape:window-x="-6"
     inkscape:window-y="-6"
     inkscape:window-maximized="1"
     inkscape:current-layer="layer1" />
  <defs
     id="defs1" />
  <g
     inkscape:label="Layer 1"
     inkscape:groupmode="layer"
     id="layer1">
    <path
       style="fill:#ac0202;stroke-width:2.93022"
       d="m 262.85348,114.74583 c -2.46659,-5.76306 -2.71268,-6.89887 -2.90857,-13.42176 -0.15139,-5.057633 -0.0619,-6.747912 0.50851,-8.707501 1.37721,-4.806744 4.66934,-9.522073 8.94686,-12.813414 1.32298,-1.017797 2.50998,-1.850449 2.63845,-1.850449 0.12853,0 -0.42877,1.034985 -1.23759,2.300212 -3.01539,4.713733 -3.485,8.138848 -1.4014,10.22228 1.09133,1.091326 1.47102,1.228996 2.78921,1.015406 1.87457,-0.304746 3.36516,-1.374191 4.41715,-3.170773 0.71935,-1.227578 0.80615,-2.316868 0.87348,-10.944994 0.0886,-10.318215 0.55812,-14.190439 2.51107,-20.362162 3.58404,-11.327514 11.71872,-21.132184 23.53071,-28.361927 1.51983,-0.929654 2.76329,-1.541624 2.76329,-1.358688 0,0.18249 -0.44561,1.25619 -0.98963,2.384194 -1.31873,2.735092 -1.90776,4.963549 -1.91049,7.237271 -0.006,3.68654 2.32799,5.062947 6.68728,3.946284 3.74127,-0.958973 6.78903,-2.853978 10.31113,-6.413044 3.18798,-3.221269 5.33715,-6.65232 6.43644,-10.275784 0.8779,-2.896149 0.78045,-8.198197 -0.21098,-11.408394 -0.83894,-2.713569 -3.37348,-7.0761319 -5.3094,-9.1361789 -3.1626,-3.36513939 3.42433,1.0301119 7.51537,5.0144885 3.59918,3.5056424 6.02153,6.8700734 8.12901,11.2903064 2.21516,4.64587 3.05019,8.084982 3.06419,12.617104 0.008,6.005179 -1.36718,10.031902 -6.34057,18.418261 -2.9207,4.925987 -4.6488,9.288725 -4.89582,12.361079 -0.17365,2.168838 -0.0981,2.626309 0.49704,2.853274 1.16474,0.447381 2.63426,-0.52799 3.63806,-2.413607 0.77427,-1.456314 0.94064,-2.39828 0.91858,-5.195739 -0.008,-1.879501 0.0267,-3.360094 0.0983,-3.290461 0.0708,0.07086 0.86818,2.101414 1.77499,4.51511 6.98894,18.606783 6.61271,36.556322 -1.11216,53.090476 l -1.88896,4.04285 h -13.9837 -13.98381 l -0.24369,-1.21996 c -0.12853,-0.6715 -1.45241,-4.5431 -2.92909,-8.60385 -3.37908,-9.291391 -4.35647,-12.799332 -4.65634,-16.71293 -0.44739,-5.830837 1.58672,-10.923286 5.96956,-14.946636 l 2.18291,-2.003795 -1.56085,0.217908 c -3.07772,0.429666 -6.47903,2.465784 -9.58292,5.733476 -2.35939,2.483768 -3.39377,4.027869 -5.20822,7.774568 -3.64951,7.535466 -5.21481,14.876219 -5.21932,24.474739 l -0.002,5.28673 -9.84791,-0.007 -9.848,-0.007 z"
       id="path10" />
    <path
       style="fill:#f2f2f2;stroke-width:2.93022"
       d="m 151.61933,290.6312 c -11.11791,-1.42903 -18.24454,-9.33912 -18.24454,-20.25036 0,-6.96876 4.2637,-14.16405 10.08772,-17.02397 4.65393,-2.28524 11.27631,-3.05632 17.69378,-2.06022 1.48236,0.23031 3.67351,0.53243 4.86929,0.67151 1.19666,0.14176 2.37285,0.49254 2.61594,0.78489 0.29501,0.35434 0.3446,2.07246 0.14973,5.14294 -0.24984,3.94531 -0.40573,4.6721 -1.08645,5.03637 -1.03251,0.5528 -1.98662,-0.19851 -1.98662,-1.56174 0,-3.93087 -3.39552,-6.02263 -10.2088,-6.28883 -5.56012,-0.21795 -8.21566,0.53064 -10.93755,3.07519 -1.09984,1.02886 -2.42096,2.82075 -2.9625,4.01848 -0.85223,1.88615 -0.9774,2.79763 -0.9774,7.14646 0,4.79107 0.062,5.09122 1.35434,7.73674 1.74059,3.53558 5.34324,6.95486 8.68605,8.24383 3.28365,1.26602 9.00029,1.58139 11.48317,0.63341 2.23413,-0.85221 2.88047,-1.55448 3.85557,-4.18292 0.63784,-1.72038 0.94312,-2.07331 1.79286,-2.07331 0.89041,0 1.0411,0.2091 1.15618,1.61373 0.0709,0.88678 -0.17365,2.98881 -0.5466,4.66923 -0.81856,3.6786 -1.31723,4.04003 -6.45875,4.68479 -3.91324,0.49079 -6.41916,0.48726 -10.33364,-0.008 z m 115.45727,0.062 c -4.45498,-0.70515 -8.41649,-3.34873 -10.20208,-6.8091 -1.60993,-3.11984 -1.99255,-6.50642 -1.99999,-17.703 -0.008,-11.30376 -0.062,-11.58388 -2.05978,-11.59575 -1.52232,-0.01 -2.18672,-0.56696 -2.02665,-1.69923 l 0.14176,-0.98963 h 6.84154 6.8418 l 0.12853,1.12562 c 0.11069,0.94312 -0.062,1.16724 -1.03736,1.38279 -0.64051,0.14177 -1.40991,0.3322 -1.70784,0.42343 -0.43231,0.12853 -0.51558,2.60168 -0.4137,12.33203 l 0.12853,12.16353 1.25044,2.44329 c 0.95658,1.87055 1.72748,2.738 3.28665,3.70098 1.80286,1.1133 2.39996,1.25743 5.20954,1.25743 2.81031,0 3.40615,-0.14337 5.20752,-1.25743 1.55572,-0.96272 2.32787,-1.83221 3.28425,-3.70098 l 1.25046,-2.44321 0.12853,-11.389 c 0.0708,-6.26401 0.0267,-11.81776 -0.0985,-12.34185 -0.18587,-0.74149 -0.57584,-0.98112 -1.75042,-1.08148 -1.62279,-0.14177 -2.50984,-1.0497 -2.08893,-2.14554 0.22425,-0.58292 1.07288,-0.6777 6.04449,-0.6777 6.30915,0 7.09611,0.14176 7.09611,1.23758 0,0.92592 -0.74241,1.54471 -2.07337,1.72891 l -1.03621,0.14357 -0.26576,11.40289 c -0.29412,12.57245 -0.65025,14.82723 -2.90253,18.3365 -3.06498,4.77636 -10.05298,7.28113 -17.17191,6.15489 z m 113.42956,0.002 c -10.97576,-1.60361 -17.3506,-7.92295 -18.44077,-18.28031 -0.57674,-5.4795 1.75873,-11.9783 5.72991,-15.94424 4.99172,-4.98509 12.3938,-6.55833 23.43851,-4.98136 7.14035,1.01904 6.3638,0.26308 6.20362,6.0377 -0.12853,4.84013 -0.39333,5.73754 -1.66317,5.76625 -0.66353,0.01 -1.58476,-1.3843 -1.58629,-2.40749 -0.002,-1.76877 -1.39561,-3.58759 -3.57906,-4.67094 -1.82404,-0.90513 -2.53318,-0.99947 -7.40754,-0.99211 -4.81076,0.008 -5.6032,0.11068 -7.36846,0.98236 -1.08772,0.53508 -2.71057,1.80641 -3.60587,2.82359 -2.36415,2.68593 -3.1239,5.24206 -3.1239,10.51284 0,4.21773 0.062,4.48917 1.5487,7.5088 2.74521,5.55391 7.81463,8.99586 13.81627,9.38086 6.21352,0.39956 8.61649,-0.69808 10.06517,-4.59396 0.85578,-2.30056 1.96404,-2.96036 2.9591,-1.76139 0.4385,0.52797 0.41727,1.28753 -0.10989,4.20768 -0.81233,4.41969 -1.37281,5.31289 -3.70866,5.90104 -2.45301,0.61833 -10.33382,0.92468 -13.15847,0.51025 z m -189.47839,-1.04473 c -0.80439,-0.97004 -0.34636,-2.07815 0.91982,-2.22439 0.62455,-0.0708 1.32582,-0.4837 1.55642,-0.91619 0.2684,-0.49965 0.38003,-6.39548 0.31006,-16.24048 l -0.10984,-15.45655 -1.57591,-0.256 c -2.01017,-0.32603 -2.71251,-0.97741 -2.10195,-1.9462 0.38977,-0.61837 1.326,-0.7291 6.91596,-0.8292 6.05584,-0.11068 6.49349,-0.062 6.89983,0.6972 0.54306,1.01407 -0.40753,2.11239 -1.82608,2.11239 -1.2918,0 -1.45764,0.81237 -1.46446,7.15284 l -0.006,5.28662 h 9.75533 9.75539 l -0.10988,-6.10959 -0.10988,-6.10946 -1.5761,-0.25516 c -2.00991,-0.32602 -2.71249,-0.97739 -2.10194,-1.94576 0.38802,-0.61569 1.31883,-0.73086 6.77661,-0.8292 6.06258,-0.10988 7.47495,0.10989 7.47495,1.17214 0,0.68123 -1.33441,1.63737 -2.2848,1.63737 -0.83893,0 -1.0215,0.25957 -1.24909,1.78012 -0.14698,0.97854 -0.20461,8.16976 -0.12853,15.97951 0.15059,15.55109 0.062,14.97843 2.64651,14.99135 1.18797,0.006 2.25981,0.62368 2.25981,1.30309 0,0.16663 -0.2941,0.59531 -0.65023,0.9541 -0.87349,0.87344 -12.4471,0.96267 -13.61968,0.0983 -1.03869,-0.75922 -0.68478,-2.11805 0.59266,-2.28265 1.90521,-0.24449 2.06909,-0.94678 2.06909,-8.86122 v -7.38434 h -9.78375 -9.78367 l 0.1435,7.68634 c 0.15679,8.43014 0.16832,8.46634 2.72031,8.47859 1.67974,0.008 2.53462,1.26329 1.53897,2.25821 -0.92221,0.92223 -13.08211,0.9651 -13.8438,0.0357 z m 120.41479,0.002 c -1.03986,-0.7716 -0.37386,-2.03974 1.1721,-2.22526 0.58558,-0.0708 1.21378,-0.4429 1.39715,-0.8292 0.52268,-1.10117 0.69808,-29.5343 0.18949,-30.87065 -0.33577,-0.8859 -0.70341,-1.13671 -1.65679,-1.13671 -1.64423,0 -2.67165,-1.03001 -2.09761,-2.10195 0.40039,-0.7468 0.948,-0.79995 8.36171,-0.79995 11.8107,0 14.92355,0.79819 17.52104,4.49819 1.1832,1.68622 1.26036,2.02789 1.25619,5.59431 -0.006,4.27371 -0.30116,5.05709 -3.29097,8.72673 l -1.83291,2.25033 3.34448,4.08148 c 4.23096,5.16364 7.67278,8.73822 9.17683,9.53058 0.64584,0.33925 1.93153,0.7468 2.85994,0.90633 2.10692,0.36057 2.97262,1.50477 1.79746,2.37738 -1.03252,0.76719 -5.92899,0.79464 -8.79759,0.062 -2.92433,-0.75922 -3.94591,-1.68977 -9.52102,-8.67809 -4.09243,-5.12958 -5.05769,-6.11607 -5.98514,-6.11607 -0.60772,0 -1.99687,-0.12853 -3.08599,-0.272 l -1.98024,-0.27198 0.30033,5.97294 c 0.16583,3.28505 0.46689,6.1465 0.67153,6.35848 0.2027,0.21175 1.166,0.49076 2.14065,0.62188 1.46773,0.1959 1.79429,0.40572 1.91041,1.22608 0.0708,0.54391 -0.11088,1.14767 -0.4137,1.34157 -0.30474,0.19309 -3.27114,0.35527 -6.59128,0.35794 -4.61621,0.006 -6.22632,-0.12853 -6.84174,-0.59179 z M 329.5325,269.6212 c 3.07565,-3.44214 2.45876,-10.09072 -1.19417,-12.87739 -1.24334,-0.94798 -1.95489,-1.13907 -4.71028,-1.26459 l -3.24581,-0.14798 v 7.68749 7.68722 l 1.14033,0.1931 c 0.6272,0.0985 2.42173,0.1578 3.98764,0.11068 2.62969,-0.071 2.93746,-0.17986 4.02267,-1.3929 z m 90.13358,20.03127 c -1.03985,-0.7716 -0.37386,-2.03974 1.17212,-2.22526 0.58558,-0.0708 1.20772,-0.4429 1.38562,-0.8292 0.46686,-1.01785 0.71933,-28.64992 0.27625,-30.35774 -0.24369,-0.94188 -0.6529,-1.48315 -1.17584,-1.56163 -2.01549,-0.303 -2.59546,-0.54306 -2.83784,-1.17338 -0.59622,-1.55562 0.41194,-1.81696 7.01057,-1.81696 5.0927,0 6.42515,0.10989 6.83719,0.61571 0.75302,0.90884 0.22692,1.79028 -1.31013,2.18833 -1.73857,0.44913 -1.90937,1.10115 -1.96118,7.45758 l -0.0357,5.07943 h 9.95165 9.95154 l -0.0357,-5.07943 c -0.0357,-5.83828 -0.295,-7.10004 -1.42814,-7.27032 -2.52489,-0.38092 -2.73173,-0.51204 -2.59945,-1.65909 l 0.12853,-1.12686 6.47167,-0.10988 c 5.36707,-0.0983 6.56026,-0.008 6.99181,0.51292 0.76276,0.91858 0.23942,1.79899 -1.30738,2.19984 -1.19792,0.31098 -1.39996,0.57053 -1.70288,2.19392 -0.52447,2.81597 -0.14137,29.324 0.43774,29.89816 0.25965,0.25965 1.15995,0.58292 2.00133,0.71933 1.835,0.29855 2.66249,1.31723 1.85746,2.28757 -0.76453,0.92353 -12.71373,0.9725 -13.94415,0.062 -1.06316,-0.79022 -0.36855,-2.01292 1.31316,-2.30784 1.08639,-0.19149 1.22607,-0.40573 1.47411,-2.28063 0.15058,-1.13909 0.29055,-4.72915 0.31094,-7.97887 l 0.0357,-5.90886 h -10.01392 -10.01399 l 0.23304,7.50896 c 0.12853,4.32068 0.41373,7.69229 0.66353,7.94031 0.23651,0.23731 1.11942,0.54396 1.96197,0.68127 1.96483,0.31804 2.79014,1.49671 1.64565,2.34672 -0.61482,0.45713 -2.23661,0.59796 -6.86618,0.59796 -4.62959,0 -6.25144,-0.14177 -6.86617,-0.59796 z M -0.14256135,234.27438 v -2.07334 H 294.88093 589.90444 v 2.07334 2.07325 H 294.88093 -0.14256135 Z M 296.16556,215.90085 c -0.61214,-0.61216 -6.66226,-15.2714 -16.77714,-40.65285 -15.92024,-39.94856 -17.55735,-43.83894 -18.99694,-45.13854 -1.25884,-1.1366 -3.67263,-1.97908 -6.45982,-2.25503 -1.42406,-0.14175 -2.91536,-0.5404 -3.31472,-0.88669 -0.96146,-0.83628 -0.91981,-2.38065 0.0886,-3.39198 0.78402,-0.78225 1.4433,-0.81591 16.27503,-0.80616 17.0393,0.009 17.32457,0.062 17.32457,2.43203 0,1.75096 -0.85137,2.34903 -3.78453,2.65546 -1.43345,0.1497 -2.79146,0.45712 -3.01807,0.6839 -0.27196,0.27197 0.0886,1.84868 1.07292,4.66217 2.90668,8.32462 22.52746,60.43148 22.75609,60.43351 0.47927,0.005 15.46877,-38.54708 21.12077,-54.31706 1.43044,-3.99111 2.68992,-8.1152 2.79906,-9.16479 0.19471,-1.87464 0.17526,-1.91308 -1.14522,-2.1769 -0.7388,-0.14796 -2.03672,-0.26932 -2.88514,-0.26932 -1.80573,0 -2.91492,-0.99582 -2.91492,-2.6147 0,-2.22624 0.65821,-2.33051 14.64648,-2.32236 12.08621,0.007 12.80971,0.062 13.5729,0.81325 1.72411,1.72438 0.33662,4.10946 -2.40742,4.14162 -1.86275,0.0266 -4.42803,0.88323 -5.48808,1.84212 -1.32007,1.19542 -3.46886,5.79018 -8.92055,19.07949 -18.17852,44.31281 -27.28014,65.47431 -28.9358,67.27701 -1.15866,1.26177 -3.33486,1.25034 -4.6106,-0.0267 z M 182.5157,215.19922 c -6.20787,-1.11701 -12.10958,-4.26635 -15.76954,-8.41507 -2.44231,-2.76858 -5.43839,-8.80662 -6.2138,-12.52274 -2.16264,-10.36527 1.54056,-21.52154 9.2392,-27.83403 2.64846,-2.17176 7.82205,-4.73845 11.28801,-5.60032 3.77344,-0.93816 12.80074,-0.73087 16.70999,0.38444 10.04769,2.86648 16.64869,9.37998 18.99631,18.74392 0.81323,3.24537 0.70339,11.14484 -0.20194,14.45975 -2.73564,10.0133 -10.11713,17.47073 -19.95413,20.15922 -2.91201,0.79641 -11.11889,1.15989 -14.09318,0.62365 z m 11.48122,-5.44007 c 6.62707,-1.40554 11.26399,-6.19598 13.03735,-13.4672 0.94313,-3.86779 0.95049,-11.49512 0.01,-15.0921 -2.90738,-11.15937 -11.67317,-17.44945 -22.06616,-15.83377 -9.92515,1.54313 -15.49802,8.8884 -15.52424,20.46219 -0.0356,15.8468 11.16433,26.76902 24.54038,23.93088 z m 180.49677,5.39684 c -11.51665,-1.66077 -20.15195,-8.33594 -23.27522,-17.99206 -1.46092,-4.51591 -1.8099,-11.57733 -0.79729,-16.12859 1.12559,-5.05798 3.55406,-9.45447 7.24381,-13.11258 3.61318,-3.58236 5.81561,-4.87389 11.03275,-6.46956 3.51045,-1.07414 4.17159,-1.13784 11.60098,-1.12685 5.68272,0.008 8.80291,0.20195 11.19574,0.69808 1.82438,0.37737 3.98107,0.68568 4.79284,0.68568 2.94337,1.8e-4 3.04717,0.29059 2.74285,7.66657 -0.16643,4.01742 -0.45798,6.76926 -0.75829,7.12991 -0.60598,0.73263 -2.43452,0.55102 -2.87995,-0.2826 -0.18247,-0.34194 -0.4447,-1.49459 -0.58027,-2.56111 -0.33659,-2.62551 -1.67343,-4.46728 -4.24757,-5.85422 -5.52804,-2.97845 -15.95186,-3.13853 -22.27392,-0.34194 -2.41431,1.06802 -5.66223,4.33013 -7.06265,7.09403 -1.45863,2.87824 -2.2683,6.87441 -2.26974,11.20029 -0.002,7.15267 2.02036,12.08415 6.98842,17.04035 5.18405,5.17138 10.94038,7.28955 18.71761,6.88744 4.16644,-0.2144 6.54949,-0.93702 8.21299,-2.48927 1.16716,-1.08884 2.34485,-3.30249 2.74661,-5.16376 0.49964,-2.3127 3.59059,-2.36187 3.87043,-0.062 0.20379,1.67078 -1.51872,9.63855 -2.31341,10.70365 -0.94551,1.26755 -3.00499,1.98068 -7.26966,2.51542 -3.94373,0.49343 -11.86218,0.47482 -15.41698,-0.0357 z m 95.99163,-0.14176 c -9.86283,-2.1116 -16.86112,-8.20936 -20.1198,-17.53006 -1.47431,-4.21701 -1.87498,-11.66849 -0.85933,-15.99801 2.32414,-9.91683 9.87933,-17.74499 19.73595,-20.44934 4.19034,-1.14883 13.26725,-1.05209 17.60403,0.18954 5.1135,1.46394 8.70163,3.53727 12.2904,7.10164 5.0841,5.04975 7.13949,10.36491 7.14231,18.47018 0.002,8.51464 -2.51849,14.67716 -8.40131,20.53422 -3.81239,3.79577 -7.32324,5.86882 -12.25675,7.23726 -3.40847,0.94551 -11.66319,1.18798 -15.13464,0.44473 z m 12.98679,-5.40808 c 8.73283,-2.27471 13.20337,-9.35676 13.21933,-20.9419 0.008,-10.22476 -3.92365,-17.86662 -11.00604,-21.35923 -4.10419,-2.02399 -7.31708,-2.56607 -11.54971,-1.94931 -4.15968,0.60594 -7.18412,1.9695 -9.80208,4.41837 -3.9369,3.68264 -5.85638,8.95386 -5.86723,16.11317 -0.008,12.09115 5.84277,21.10518 15.33603,23.58662 3.38604,0.8859 6.61033,0.92843 9.6697,0.12853 z M 7.4543828,214.03194 c -1.2418394,-1.24184 -0.4836952,-2.357 2.0318763,-2.99068 3.1164709,-0.78489 3.0180489,0.15059 3.0180489,-28.68554 0,-28.5904 0.316261,-26.28062 -3.6701521,-26.82145 -2.6113361,-0.35524 -2.5486151,-0.32071 -2.9268899,-1.55332 -0.6059485,-1.97837 0.1692073,-2.12791 11.037651,-2.12277 5.539644,0.003 10.398658,0.17543 10.797839,0.38359 0.976162,0.50851 0.928413,2.28462 -0.07086,2.82219 -0.441175,0.23655 -1.446748,0.42876 -2.234657,0.42876 -0.792872,0 -1.870025,0.35524 -2.411568,0.79198 l -0.978555,0.79288 -0.128451,20.04387 c -0.141745,20.82247 0.218815,28.70528 1.368611,30.4605 0.902634,1.37854 2.145359,1.60797 8.712719,1.60797 4.771932,0 6.044159,-0.12853 7.148597,-0.73527 1.394301,-0.76188 2.702496,-2.86922 3.19363,-5.14588 0.361442,-1.67264 1.192941,-2.36629 2.45684,-2.04915 1.418486,0.35614 1.572807,1.53942 0.847797,6.47799 -0.652903,4.44335 -1.214999,5.86228 -2.623385,6.61582 -1.275948,0.68301 -34.8602791,0.37827 -35.5613719,-0.32247 z m 40.5244842,0.1957 c -0.586459,-0.58645 -0.5528,-2.06146 0.06202,-2.67564 0.272858,-0.27286 0.973675,-0.49965 1.554999,-0.50496 0.580257,-0.004 1.308723,-0.16563 1.615684,-0.35967 0.966326,-0.61213 1.371356,-9.64129 1.231829,-27.43509 -0.145313,-18.51757 -0.09833,-18.22461 -2.647214,-18.22461 -2.146512,0 -3.271589,-2.31199 -1.661755,-3.41448 0.244513,-0.16745 4.083509,-0.30475 8.530672,-0.30475 4.447167,0 8.285905,0.14172 8.530496,0.30475 1.520364,1.04109 0.493446,3.41448 -1.475361,3.41448 -2.632862,0 -2.540905,-0.88057 -2.407668,23.03968 0.08859,15.29879 0.258665,21.83833 0.585572,22.16513 0.255155,0.25516 1.532503,0.60773 2.838655,0.78667 2.948153,0.40041 3.954078,1.63508 2.508927,3.08014 -0.508499,0.50851 -2.197532,0.61127 -9.722192,0.59002 -5.789998,-0.01 -9.265786,-0.18347 -9.543332,-0.46155 z m 23.634994,0 c -0.586458,-0.58645 -0.552796,-2.06146 0.06198,-2.67564 0.27289,-0.27286 0.996981,-0.49698 1.607804,-0.49698 1.826437,0 2.125779,-0.8416 2.54445,-7.15924 0.546596,-8.25657 0.268407,-37.43183 -0.364119,-38.06374 -0.264891,-0.26489 -1.364356,-0.6467 -2.443727,-0.84868 -2.212062,-0.41281 -3.086524,-0.97864 -3.086524,-1.99564 0,-1.63624 0.499639,-1.69073 15.499254,-1.69073 10.35189,0 14.903501,-0.1435 15.899411,-0.50495 1.89616,-0.68479 2.83104,-0.0709 2.74733,1.79906 -0.20379,4.57243 -0.74681,8.37113 -1.2717,8.89628 -0.72909,0.72909 -1.9447,0.76275 -2.51619,0.0709 -0.23472,-0.28529 -0.559883,-1.22484 -0.721116,-2.08796 -0.455347,-2.4408 -1.526032,-2.78435 -8.675336,-2.78435 h -6.032921 v 8.50037 8.50038 h 6.300982 c 6.103599,0 6.349612,-0.0266 7.850216,-1.07414 2.604255,-1.80456 4.024335,-0.70428 3.260965,2.52496 -0.21435,0.91122 -0.39775,2.87143 -0.40663,4.35379 -0.009,2.94603 -0.65379,4.68255 -1.79641,4.90252 -1.113387,0.21527 -1.843983,-0.62367 -2.157321,-2.47766 -0.401311,-2.37817 -1.716143,-2.83954 -8.087815,-2.83954 h -5.015465 l 0.12845,10.34621 c 0.08859,6.91145 0.282603,10.50002 0.593545,10.80927 0.255155,0.25516 1.532411,0.60773 2.838481,0.7849 2.94824,0.40041 3.954347,1.63509 2.509195,3.08007 -0.5085,0.5085 -2.197542,0.61127 -9.722374,0.59178 -5.78982,-0.01 -9.265519,-0.18347 -9.543067,-0.46155 z m 36.748639,-0.29586 c -1.08521,-0.87702 -0.59443,-2.3787 0.88678,-2.7071 2.31643,-0.51469 2.57006,-0.66796 2.87401,-1.75229 0.36145,-1.28755 0.43142,-43.42576 0.0709,-43.78419 -0.12843,-0.12845 -1.24184,-0.42877 -2.4665,-0.66176 -1.22483,-0.23297 -2.37418,-0.65379 -2.55357,-0.93576 -0.50053,-0.78845 -0.39955,-2.2934 0.17894,-2.65086 0.28526,-0.17629 6.33712,-0.26489 13.44887,-0.19754 9.27251,0.0886 13.58865,-0.0266 15.25714,-0.39599 3.50023,-0.78402 3.72153,-0.42259 3.10424,5.05355 -0.59975,5.32039 -0.90511,6.17633 -2.20684,6.17633 -1.24316,0 -1.7413,-0.61392 -2.09663,-2.58653 -0.17543,-0.9774 -0.61835,-1.73696 -1.19542,-2.05535 -0.54393,-0.30033 -3.22836,-0.57406 -6.61653,-0.67327 l -5.70141,-0.16832 v 8.5848 8.58462 l 6.32339,-0.14172 c 5.87637,-0.12843 6.41526,-0.20996 7.6213,-1.11463 1.07539,-0.80615 1.44897,-0.89289 2.17699,-0.50496 1.01417,0.54305 1.03499,1.03003 0.32247,7.44476 -0.43233,3.8863 -0.57051,4.34209 -1.42275,4.65499 -1.2475,0.458 -2.58183,-0.84514 -2.58183,-2.52151 0,-1.81944 -1.13907,-2.20329 -7.18855,-2.42229 l -5.3226,-0.19221 0.16037,9.07478 c 0.0886,4.99137 0.31273,9.40336 0.4961,9.80431 0.49698,1.0815 1.97916,1.34452 7.57391,1.34452 6.01235,0 6.93448,-0.43498 7.98594,-3.75723 0.50053,-1.58379 0.86463,-2.07867 1.60364,-2.18338 2.17016,-0.30739 2.49351,0.92966 1.67699,6.41962 -0.35524,2.38259 -0.72466,3.45549 -1.43816,4.16899 l -0.96145,0.96145 -14.60655,-0.11069 c -12.51203,-0.0983 -14.72144,-0.20202 -15.40801,-0.75833 z m 108.79131,0.29502 c -1.30448,-1.30448 0.01,-3.17106 2.24377,-3.17106 1.9805,0 2.05402,-0.73084 2.21197,-21.97651 0.0886,-10.83275 0.0267,-20.49877 -0.10988,-21.48007 -0.28704,-1.91769 -0.621,-2.17238 -3.73341,-2.83733 -1.55181,-0.33219 -1.65872,-0.44823 -1.65872,-1.80552 v -1.45144 l 15.34209,-0.24273 c 8.43818,-0.12845 15.81977,-0.38184 16.40392,-0.55103 1.91326,-0.55811 2.17353,0.33044 1.65113,5.64267 -0.46067,4.67591 -0.89042,5.724 -2.34797,5.724 -0.83186,0 -1.81635,-1.22757 -1.81635,-2.26415 0,-0.528 -0.35611,-1.40148 -0.79198,-1.94001 -0.76274,-0.94427 -1.02762,-0.98352 -7.4637,-1.11091 l -6.67216,-0.12843 v 8.55671 8.55681 l 6.80966,-0.12845 c 6.39717,-0.12843 6.86953,-0.18783 7.80141,-1.06431 1.15617,-1.0876 2.07748,-1.18683 2.81259,-0.30033 0.41373,0.49876 0.42345,1.23617 0.062,3.50059 -0.26043,1.57777 -0.47396,3.82483 -0.47396,4.99314 0,2.5837 -0.5528,3.72844 -1.79764,3.72844 -1.24743,0 -1.93426,-0.74946 -1.93426,-2.11036 0,-0.61392 -0.35613,-1.55553 -0.79198,-2.09406 -0.75301,-0.93081 -1.07414,-0.98591 -6.6345,-1.1133 l -5.84253,-0.12845 0.0267,8.6352 c 0.0267,7.96911 0.32422,12.23326 0.90882,12.81654 0.12853,0.12853 1.23608,0.36939 2.45995,0.53505 1.22473,0.16663 2.45444,0.44298 2.73377,0.61571 0.66086,0.40929 0.65379,2.1163 -0.01,2.66219 -0.70871,0.58292 -18.77873,0.53152 -19.365,-0.062 z m 113.61621,0.002 c -0.58649,-0.58647 -0.55282,-2.06147 0.062,-2.67567 0.27282,-0.27282 0.97369,-0.49962 1.555,-0.50494 2.08868,-0.01 2.16662,-0.25692 2.59195,-8.13406 0.43939,-8.14239 0.23731,-35.58707 -0.27112,-36.749 -0.17525,-0.40131 -0.71756,-0.80882 -1.2064,-0.90759 -0.48902,-0.0983 -1.38853,-0.28261 -1.99999,-0.41105 -1.29306,-0.27198 -1.82413,-1.49406 -1.17584,-2.70463 0.43143,-0.80704 0.82476,-0.84425 8.85508,-0.84425 8.81895,0 9.39782,0.10984 9.39782,1.86595 0,1.23333 -0.78492,1.86586 -2.31255,1.86586 -0.72555,0 -1.53347,0.26135 -1.79731,0.57849 -0.35256,0.4261 -0.44823,6.34465 -0.36145,22.42461 0.10989,21.0754 0.14718,21.86774 0.92222,22.43532 0.44296,0.32337 1.59841,0.58823 2.56818,0.58823 1.35144,0 1.91381,0.21528 2.40854,0.92105 0.79731,1.13909 0.80264,1.35152 0.0267,2.12278 -0.50849,0.50849 -2.19751,0.61126 -9.72237,0.59177 -5.7899,-0.01 -9.2656,-0.18328 -9.54315,-0.46155 z m 87.76327,0.0886 c -0.39065,-0.21792 -0.70782,-0.85135 -0.70782,-1.40688 0,-0.85135 0.29413,-1.08396 1.87935,-1.48323 1.13408,-0.28614 2.07969,-0.82212 2.38425,-1.35445 0.37475,-0.6529 0.53687,-6.4009 0.62986,-22.17603 l 0.12854,-21.29554 -6.34447,0.16122 c -3.89536,0.0983 -6.69185,0.35613 -7.24472,0.66353 -0.49611,0.27549 -1.33726,1.29596 -1.87137,2.26699 -1.07775,1.96091 -2.66873,2.5394 -3.66862,1.33442 -0.47929,-0.57672 -0.44827,-1.25886 0.19129,-4.47835 0.41638,-2.08928 1.01297,-4.42936 1.32736,-5.20026 0.62721,-1.53516 0.35168,-1.50939 5.12966,-0.48636 2.7395,0.58647 33.08984,0.54837 36.31713,-0.0356 3.9266,-0.72377 4.05948,-0.52799 3.80771,5.58402 -0.22508,5.46115 -0.63694,6.41632 -2.5601,5.93369 -0.85492,-0.21527 -1.12069,-0.59532 -1.32878,-1.90068 -0.14337,-0.899 -0.58647,-1.92672 -0.98225,-2.28595 -0.98848,-0.89412 -4.77123,-1.45276 -9.85545,-1.45569 l -4.25004,-0.002 0.0267,19.59224 c 0.0267,18.268 0.23011,23.5153 0.9308,24.21675 0.156,0.15499 1.35011,0.42701 2.65535,0.60507 3.02273,0.41014 4.17087,1.64359 2.80313,3.01131 -0.52443,0.52445 -2.12657,0.62721 -9.65761,0.61215 -4.96595,-0.008 -9.34781,-0.19309 -9.73753,-0.4128 z m 88.46928,-0.0886 c -0.59267,-0.59267 -0.56255,-2.06502 0.0622,-2.68194 0.27282,-0.27291 0.97244,-0.49965 1.55492,-0.50496 0.58025,-0.004 1.30022,-0.16042 1.59839,-0.34906 1.01665,-0.64582 1.38296,-8.43508 1.24911,-26.60858 -0.12853,-17.14471 -0.16602,-17.90958 -0.93703,-18.47345 -0.44268,-0.32337 -1.46886,-0.59177 -2.28045,-0.59532 -0.81237,-0.003 -1.67587,-0.14353 -1.92058,-0.31006 -0.74944,-0.51294 -1.02642,-1.7732 -0.57582,-2.61533 0.40751,-0.76098 0.99456,-0.79818 12.127,-0.79198 12.89935,0.008 15.77095,0.35523 19.4266,2.34415 8.15813,4.44026 8.62459,15.62983 1.00312,24.05243 l -2.29661,2.5378 5.25596,6.57277 c 5.7612,7.20405 10.38201,12.08433 12.45099,13.14971 0.7353,0.37827 2.47812,0.84425 3.87562,1.03498 3.13959,0.42877 4.14811,1.6295 2.63822,3.13932 -0.52174,0.5218 -1.66608,0.65025 -5.72972,0.65025 -9.32946,0 -10.7671,-0.94188 -20.13051,-13.18903 l -6.40116,-8.37273 h -3.89242 -3.89243 l 0.12853,8.27306 c 0.0882,5.3747 0.29756,8.43544 0.59794,8.73611 0.25513,0.25516 1.5324,0.60772 2.83848,0.7849 2.94289,0.40041 3.95403,1.63527 2.51531,3.07395 -0.49965,0.49964 -2.24552,0.60594 -9.71608,0.59619 -5.88786,-0.008 -9.26301,-0.16923 -9.5494,-0.45533 z m 23.35813,-26.56322 c 2.8992,-1.21013 4.58947,-4.87559 4.51538,-9.78829 -0.0708,-5.09041 -1.62807,-8.27022 -4.99889,-10.24548 -1.62836,-0.95411 -2.51212,-1.15255 -5.7851,-1.29597 l -3.86322,-0.16918 0.11089,10.72697 0.10988,10.72696 1.45119,0.25601 c 2.72044,0.48016 7.06119,0.3712 8.45909,-0.21174 z m 32.13902,26.21576 c -0.23145,-0.43498 -0.30655,-1.15617 -0.16542,-1.60292 0.23941,-0.75478 0.78133,-1.0031 2.88748,-1.32016 1.57606,-0.23741 1.86382,-1.76247 1.87018,-9.91186 0.002,-5.55851 -0.15581,-8.18189 -0.57226,-9.36155 -0.72643,-2.05801 -13.19853,-21.74221 -15.13341,-23.88402 -1.56984,-1.73749 -3.27797,-2.77762 -4.56208,-2.77762 -1.89748,0 -2.52748,-3.0991 -0.72021,-3.54338 0.48547,-0.10986 4.24217,-0.16392 8.34711,-0.0983 l 7.46369,0.11071 0.14176,1.21624 c 0.0983,0.88411 -0.11088,1.4098 -0.80617,1.9284 l -0.94425,0.71137 5.98407,9.99292 c 3.29143,5.49606 6.07982,9.99133 6.19642,9.98938 0.42963,-0.007 11.20062,-18.57799 11.20062,-19.31372 0,-0.41903 -0.50678,-1.16601 -1.12686,-1.66033 -1.01409,-0.80882 -1.07655,-1.00673 -0.63076,-1.98502 l 0.49609,-1.08636 h 7.18218 c 7.59127,0 8.17754,0.14172 8.17754,1.93425 0,1.06803 -0.76188,1.56404 -3.02901,1.97341 -1.08277,0.1949 -2.10877,0.83007 -3.27012,2.02416 -1.88051,1.93257 -7.688,10.60445 -12.39621,18.51084 l -3.07371,5.16137 -0.14176,6.86334 c -0.14176,7.02412 0.12853,11.43009 0.73708,12.42762 0.19129,0.30829 1.34584,0.65378 2.56836,0.76451 2.55881,0.2339 3.25762,0.65556 3.25762,1.96411 0,0.5147 -0.23412,1.12676 -0.51827,1.36142 -0.32233,0.2649 -4.02566,0.41994 -9.75893,0.41016 -8.65514,-0.01 -9.2675,-0.0708 -9.66358,-0.80616 z M 304.21061,73.800366 c 0,-0.227674 0.19852,-0.413709 0.43847,-0.413709 0.24291,0 0.32339,0.186039 0.18247,0.413709 -0.14176,0.227671 -0.33927,0.413708 -0.43851,0.413708 -0.0983,0 -0.18247,-0.186039 -0.18247,-0.413708 z"
       id="path9" />
  </g>
</svg>
